<svg width="33" height="32" viewBox="0 0 33 32" fill="none" xmlns="http://www.w3.org/2000/svg">
<mask id="path-1-inside-1_635_1146" fill="white">
<path fill-rule="evenodd" clip-rule="evenodd" d="M31.8596 13.2633C31.9028 13.5153 31.9403 13.7696 31.972 14.0261C32.6399 19.4075 30.6699 24.6526 26.9555 28.0201C24.8678 29.9146 22.2284 31.2182 19.195 31.6232C15.0516 32.1743 10.808 32.0063 6.43231 31.8332C4.44854 31.7547 2.43762 31.6751 0.396552 31.661L0.41064 31.646C0.406074 31.6459 0.401507 31.6459 0.396941 31.6459C0.360286 30.0262 0.290984 28.3614 0.220416 26.6661C0.0582451 22.7703 -0.110611 18.7139 0.0947137 14.6759C0.51783 6.44777 7.49925 0.153912 15.7047 0.00279888C23.205 -0.133571 29.5917 4.72652 31.5106 11.6955C31.6516 12.2071 31.7684 12.7301 31.8596 13.2633Z"/>
</mask>
<path fill-rule="evenodd" clip-rule="evenodd" d="M31.8596 13.2633C31.9028 13.5153 31.9403 13.7696 31.972 14.0261C32.6399 19.4075 30.6699 24.6526 26.9555 28.0201C24.8678 29.9146 22.2284 31.2182 19.195 31.6232C15.0516 32.1743 10.808 32.0063 6.43231 31.8332C4.44854 31.7547 2.43762 31.6751 0.396552 31.661L0.41064 31.646C0.406074 31.6459 0.401507 31.6459 0.396941 31.6459C0.360286 30.0262 0.290984 28.3614 0.220416 26.6661C0.0582451 22.7703 -0.110611 18.7139 0.0947137 14.6759C0.51783 6.44777 7.49925 0.153912 15.7047 0.00279888C23.205 -0.133571 29.5917 4.72652 31.5106 11.6955C31.6516 12.2071 31.7684 12.7301 31.8596 13.2633Z" fill="#FFA800"/>
<path d="M31.972 14.0261L29.9871 14.2715L29.9872 14.2724L31.972 14.0261ZM31.8596 13.2633L29.8882 13.6005L29.8883 13.6011L31.8596 13.2633ZM26.9555 28.0201L25.6121 26.5384L25.6115 26.539L26.9555 28.0201ZM19.195 31.6232L19.4587 33.6057L19.4597 33.6056L19.195 31.6232ZM6.43231 31.8332L6.51139 29.8348L6.51139 29.8348L6.43231 31.8332ZM0.396552 31.661L-1.06153 30.292L-4.1947 33.6292L0.382696 33.6609L0.396552 31.661ZM0.41064 31.646L1.86872 33.0149L5.00115 29.6785L0.424842 29.646L0.41064 31.646ZM0.396941 31.6459L-1.60255 31.6911L-1.55862 33.632L0.38274 33.6458L0.396941 31.6459ZM0.220416 26.6661L2.21869 26.5829L0.220416 26.6661ZM0.0947137 14.6759L-1.90265 14.5732L-1.90271 14.5743L0.0947137 14.6759ZM15.7047 0.00279888L15.6683 -1.99687L15.6679 -1.99686L15.7047 0.00279888ZM31.5106 11.6955L29.5823 12.2265L29.5825 12.2271L31.5106 11.6955ZM33.9569 13.7807C33.9214 13.4933 33.8793 13.2082 33.8308 12.9254L29.8883 13.6011C29.9263 13.8224 29.9592 14.0459 29.9871 14.2715L33.9569 13.7807ZM28.2988 29.5018C32.5112 25.6828 34.7022 19.786 33.9568 13.7798L29.9872 14.2724C30.5776 19.0291 28.8285 23.6224 25.6121 26.5384L28.2988 29.5018ZM19.4597 33.6056C22.9119 33.1447 25.9238 31.657 28.2995 29.5012L25.6115 26.539C23.8118 28.1721 21.5449 29.2917 18.9303 29.6408L19.4597 33.6056ZM6.35323 33.8316C10.6963 34.0035 15.115 34.1834 19.4587 33.6057L18.9313 29.6407C14.9882 30.1651 10.9198 30.0092 6.51139 29.8348L6.35323 33.8316ZM0.382696 33.6609C2.38586 33.6748 4.36448 33.7529 6.35323 33.8316L6.51139 29.8348C4.53261 29.7565 2.48938 29.6754 0.410408 29.661L0.382696 33.6609ZM-1.04744 30.277L-1.06153 30.292L1.85463 33.0299L1.86872 33.0149L-1.04744 30.277ZM0.38274 33.6458C0.385266 33.6458 0.387758 33.6459 0.390006 33.6459C0.392324 33.6459 0.394398 33.6459 0.396437 33.6459L0.424842 29.646C0.422315 29.646 0.419823 29.646 0.417575 29.646C0.415256 29.646 0.413182 29.6459 0.411142 29.6459L0.38274 33.6458ZM-1.77785 26.7493C-1.70713 28.4482 -1.6387 30.0937 -1.60255 31.6911L2.39643 31.6006C2.35927 29.9586 2.2891 28.2745 2.21869 26.5829L-1.77785 26.7493ZM-1.90271 14.5743C-2.1135 18.7199 -1.93941 22.8683 -1.77785 26.7493L2.21869 26.5829C2.0559 22.6723 1.89228 18.7079 2.09213 14.7774L-1.90271 14.5743ZM15.6679 -1.99686C6.48881 -1.82782 -1.42173 5.22113 -1.90265 14.5732L2.09207 14.7786C2.45739 7.67441 8.50969 2.13564 15.7415 2.00246L15.6679 -1.99686ZM33.4388 11.1646C31.2764 3.31115 24.0784 -2.14978 15.6683 -1.99687L15.741 2.00247C22.3317 1.88264 27.907 6.14189 29.5823 12.2265L33.4388 11.1646ZM33.831 12.926C33.7285 12.3273 33.5973 11.7395 33.4386 11.164L29.5825 12.2271C29.7059 12.6747 29.8082 13.1328 29.8882 13.6005L33.831 12.926Z" fill="#181818" mask="url(#path-1-inside-1_635_1146)"/>
</svg>
