<svg width="38" height="37" viewBox="0 0 38 37" fill="none" xmlns="http://www.w3.org/2000/svg">
<g filter="url(#filter0_d_718_1212)">
<mask id="path-1-inside-1_718_1212" fill="white">
<path fill-rule="evenodd" clip-rule="evenodd" d="M34.8596 13.2633C34.9028 13.5153 34.9403 13.7696 34.972 14.0261C35.6399 19.4075 33.6699 24.6526 29.9555 28.0201C27.8678 29.9146 25.2284 31.2182 22.195 31.6232C18.0516 32.1743 13.808 32.0063 9.43231 31.8332C7.44854 31.7547 5.43762 31.6751 3.39655 31.661L3.41064 31.646C3.40607 31.6459 3.40151 31.6459 3.39694 31.6459C3.36029 30.0262 3.29098 28.3614 3.22042 26.6661C3.05825 22.7703 2.88939 18.7139 3.09471 14.6759C3.51783 6.44777 10.4993 0.153912 18.7047 0.00279888C26.205 -0.133571 32.5917 4.72652 34.5106 11.6955C34.6516 12.2071 34.7684 12.7301 34.8596 13.2633Z"/>
</mask>
<path fill-rule="evenodd" clip-rule="evenodd" d="M34.8596 13.2633C34.9028 13.5153 34.9403 13.7696 34.972 14.0261C35.6399 19.4075 33.6699 24.6526 29.9555 28.0201C27.8678 29.9146 25.2284 31.2182 22.195 31.6232C18.0516 32.1743 13.808 32.0063 9.43231 31.8332C7.44854 31.7547 5.43762 31.6751 3.39655 31.661L3.41064 31.646C3.40607 31.6459 3.40151 31.6459 3.39694 31.6459C3.36029 30.0262 3.29098 28.3614 3.22042 26.6661C3.05825 22.7703 2.88939 18.7139 3.09471 14.6759C3.51783 6.44777 10.4993 0.153912 18.7047 0.00279888C26.205 -0.133571 32.5917 4.72652 34.5106 11.6955C34.6516 12.2071 34.7684 12.7301 34.8596 13.2633Z" fill="#4F4BEB"/>
<path d="M34.972 14.0261L32.9871 14.2715L32.9872 14.2724L34.972 14.0261ZM34.8596 13.2633L32.8882 13.6005L32.8883 13.6011L34.8596 13.2633ZM29.9555 28.0201L28.6121 26.5384L28.6115 26.539L29.9555 28.0201ZM22.195 31.6232L22.4587 33.6057L22.4597 33.6056L22.195 31.6232ZM9.43231 31.8332L9.51139 29.8348L9.51139 29.8348L9.43231 31.8332ZM3.39655 31.661L1.93847 30.292L-1.1947 33.6292L3.3827 33.6609L3.39655 31.661ZM3.41064 31.646L4.86872 33.0149L8.00115 29.6785L3.42484 29.646L3.41064 31.646ZM3.39694 31.6459L1.39745 31.6911L1.44138 33.632L3.38274 33.6458L3.39694 31.6459ZM3.22042 26.6661L5.21869 26.5829L3.22042 26.6661ZM3.09471 14.6759L1.09735 14.5732L1.09729 14.5743L3.09471 14.6759ZM18.7047 0.00279888L18.6683 -1.99687L18.6679 -1.99686L18.7047 0.00279888ZM34.5106 11.6955L32.5823 12.2265L32.5825 12.2271L34.5106 11.6955ZM36.9569 13.7807C36.9214 13.4933 36.8793 13.2082 36.8308 12.9254L32.8883 13.6011C32.9263 13.8224 32.9592 14.0459 32.9871 14.2715L36.9569 13.7807ZM31.2988 29.5018C35.5112 25.6828 37.7022 19.786 36.9568 13.7798L32.9872 14.2724C33.5776 19.0291 31.8285 23.6224 28.6121 26.5384L31.2988 29.5018ZM22.4597 33.6056C25.9119 33.1447 28.9238 31.657 31.2995 29.5012L28.6115 26.539C26.8118 28.1721 24.5449 29.2917 21.9303 29.6408L22.4597 33.6056ZM9.35323 33.8316C13.6963 34.0035 18.115 34.1834 22.4587 33.6057L21.9313 29.6407C17.9882 30.1651 13.9198 30.0092 9.51139 29.8348L9.35323 33.8316ZM3.3827 33.6609C5.38586 33.6748 7.36448 33.7529 9.35323 33.8316L9.51139 29.8348C7.53261 29.7565 5.48938 29.6754 3.41041 29.661L3.3827 33.6609ZM1.95256 30.277L1.93847 30.292L4.85463 33.0299L4.86872 33.0149L1.95256 30.277ZM3.38274 33.6458C3.38527 33.6458 3.38776 33.6459 3.39001 33.6459C3.39232 33.6459 3.3944 33.6459 3.39644 33.6459L3.42484 29.646C3.42232 29.646 3.41982 29.646 3.41757 29.646C3.41526 29.646 3.41318 29.6459 3.41114 29.6459L3.38274 33.6458ZM1.22215 26.7493C1.29287 28.4482 1.3613 30.0937 1.39745 31.6911L5.39643 31.6006C5.35927 29.9586 5.2891 28.2745 5.21869 26.5829L1.22215 26.7493ZM1.09729 14.5743C0.886502 18.7199 1.06059 22.8683 1.22215 26.7493L5.21869 26.5829C5.0559 22.6723 4.89228 18.7079 5.09213 14.7774L1.09729 14.5743ZM18.6679 -1.99686C9.48881 -1.82782 1.57827 5.22113 1.09735 14.5732L5.09207 14.7786C5.45739 7.67441 11.5097 2.13564 18.7415 2.00246L18.6679 -1.99686ZM36.4388 11.1646C34.2764 3.31115 27.0784 -2.14978 18.6683 -1.99687L18.741 2.00247C25.3317 1.88264 30.907 6.14189 32.5823 12.2265L36.4388 11.1646ZM36.831 12.926C36.7285 12.3273 36.5973 11.7395 36.4386 11.164L32.5825 12.2271C32.7059 12.6747 32.8082 13.1328 32.8882 13.6005L36.831 12.926Z" fill="white" mask="url(#path-1-inside-1_718_1212)"/>
</g>
<defs>
<filter id="filter0_d_718_1212" x="0.556061" y="0" width="36.9885" height="36.8879" filterUnits="userSpaceOnUse" color-interpolation-filters="sRGB">
<feFlood flood-opacity="0" result="BackgroundImageFix"/>
<feColorMatrix in="SourceAlpha" type="matrix" values="0 0 0 0 0 0 0 0 0 0 0 0 0 0 0 0 0 0 127 0" result="hardAlpha"/>
<feOffset dy="2.44394"/>
<feGaussianBlur stdDeviation="1.22197"/>
<feComposite in2="hardAlpha" operator="out"/>
<feColorMatrix type="matrix" values="0 0 0 0 0 0 0 0 0 0 0 0 0 0 0 0 0 0 0.1 0"/>
<feBlend mode="normal" in2="BackgroundImageFix" result="effect1_dropShadow_718_1212"/>
<feBlend mode="normal" in="SourceGraphic" in2="effect1_dropShadow_718_1212" result="shape"/>
</filter>
</defs>
</svg>
