<svg width="41" height="34" viewBox="0 0 41 34" fill="none" xmlns="http://www.w3.org/2000/svg">
<path d="M19.2657 0.0291155C24.085 -0.197678 28.9611 1.32373 32.9583 4.64058C25.0205 -1.96477 13.5675 -1.46394 6.1211 5.79344C1.1411 10.6506 -0.900036 17.6056 0.366226 24.0219H19.2657V0.0291155Z" fill="white"/>
<path d="M39.998 24.0219C40.4516 21.8957 40.5367 19.7222 40.2343 17.5771C40.5367 19.7222 40.4516 21.9051 39.998 24.0219Z" fill="white"/>
<path d="M32.9495 4.6406C28.9617 1.32374 24.0762 -0.19766 19.2568 0.0291336V24.022H39.9895C40.4431 21.8958 40.5281 19.7223 40.2257 17.5773V17.5678C40.1407 16.963 40.0273 16.3582 39.8855 15.7629C38.9028 11.5578 36.512 7.59836 32.9495 4.6406Z" fill="white"/>
<path d="M41.001 25.9119H0.367188V33.4716H41.001V25.9119Z" fill="white"/>
</svg>
