<svg width="34" height="28" viewBox="0 0 34 28" fill="none" xmlns="http://www.w3.org/2000/svg">
<path d="M15.5407 0.259326C19.4283 0.0763823 23.3616 1.30363 26.586 3.97918C20.1829 -1.34905 10.9443 -0.945053 4.93761 4.90914C0.920472 8.82719 -0.726018 14.4375 0.295418 19.6132H15.5407V0.259326Z" fill="black"/>
<path d="M32.2646 19.6132C32.6305 17.8981 32.6991 16.1449 32.4552 14.4146C32.6991 16.1449 32.6305 17.9057 32.2646 19.6132Z" fill="black"/>
<path d="M26.5784 3.9791C23.3617 1.30355 19.4208 0.0763009 15.5332 0.259245V19.6132H32.2573C32.6232 17.8981 32.6918 16.1449 32.4479 14.4145V14.4069C32.3793 13.919 32.2878 13.4312 32.1734 12.951C31.3807 9.55888 29.4522 6.36499 26.5784 3.9791Z" fill="black"/>
<path d="M33.0733 21.1377H0.295898V27.2358H33.0733V21.1377Z" fill="black"/>
</svg>
