<svg width="14" height="18" viewBox="0 0 14 18" fill="none" xmlns="http://www.w3.org/2000/svg">
<g id="&#240;&#159;&#166;&#134; icon &#34;microphone&#34;">
<path id="Vector" d="M6.49897 0.0092107C6.40049 0.0251065 6.30318 0.047561 6.2077 0.0764241C5.70229 0.190243 5.25194 0.475692 4.9333 0.884184C4.61467 1.29268 4.44746 1.79896 4.46011 2.31687V6.79777C4.46011 7.39197 4.69616 7.96184 5.11634 8.382C5.53651 8.80217 6.10639 9.03821 6.70061 9.03821C7.29483 9.03821 7.86471 8.80217 8.28488 8.382C8.70506 7.96184 8.94111 7.39197 8.94111 6.79777V2.31687C8.95195 1.99929 8.8951 1.68303 8.77435 1.3891C8.6536 1.09516 8.4717 0.830277 8.24073 0.612027C8.00976 0.393777 7.73501 0.227155 7.43471 0.123223C7.13441 0.0192906 6.81544 -0.0195735 6.49897 0.0092107ZM0.763293 4.55732C0.531422 4.63526 0.331439 4.78696 0.193886 4.98924C0.0563332 5.19152 -0.0112272 5.43326 0.00152349 5.67754V6.79777C0.00152349 10.1136 2.44367 12.8246 5.60277 13.3847V15.7596H4.48252C3.25024 15.7596 2.24202 16.7678 2.24202 18H11.2264C11.2264 16.7678 10.2182 15.7596 8.98592 15.7596H7.86567V13.3847C11.0248 12.847 13.4669 10.1136 13.4669 6.79777V5.67754C13.4669 5.38044 13.3489 5.09551 13.1388 4.88542C12.9287 4.67534 12.6438 4.55732 12.3467 4.55732C12.0496 4.55732 11.7646 4.67534 11.5545 4.88542C11.3444 5.09551 11.2264 5.38044 11.2264 5.67754V6.79777C11.2264 9.28466 9.23237 11.2787 6.74542 11.2787C4.25847 11.2787 2.26443 9.28466 2.26443 6.79777V5.67754C2.26714 5.51182 2.23304 5.34755 2.16459 5.1966C2.09614 5.04565 1.99504 4.91176 1.86859 4.8046C1.74214 4.69744 1.59349 4.61968 1.43335 4.57692C1.27321 4.53416 1.10557 4.52746 0.942532 4.55732C0.897763 4.55463 0.852872 4.55463 0.808103 4.55732H0.763293Z" fill="white"/>
</g>
</svg>
