<svg width="17" height="15" viewBox="0 0 17 15" fill="none" xmlns="http://www.w3.org/2000/svg">
<path d="M10.2135 0.299927C10.9895 0.307918 11.6215 0.707478 11.9895 1.42669C12.0845 1.61648 12.217 1.89367 12.3557 2.18608L12.5232 2.53966L12.6055 2.71327L12.6855 2.88908C12.7175 2.94501 12.7735 2.98497 12.8455 2.98497C14.7655 2.98497 16.3335 4.55124 16.3335 6.46913V11.2159C16.3335 13.1338 14.7655 14.7001 12.8455 14.7001H3.8215C1.8935 14.7001 0.333496 13.1338 0.333496 11.2159V6.46913C0.333496 4.55124 1.8935 2.98497 3.8215 2.98497C3.8855 2.98497 3.9495 2.953 3.9735 2.88908L4.0215 2.79318C4.2455 2.3217 4.5175 1.74633 4.6775 1.42669C5.0455 0.707478 5.6695 0.307918 6.4455 0.299927H10.2135ZM8.3335 5.42229C7.4935 5.42229 6.7015 5.74992 6.1015 6.34926C5.5095 6.9486 5.1815 7.73174 5.1895 8.56283C5.1895 9.4019 5.5175 10.185 6.1095 10.7844C6.7095 11.3757 7.4935 11.7034 8.3335 11.7034C9.1975 11.7034 9.9815 11.3518 10.5495 10.7844C11.1175 10.217 11.4695 9.43387 11.4775 8.56283C11.4775 7.73174 11.1495 6.94061 10.5575 6.34127C9.9655 5.74992 9.1735 5.42229 8.3335 5.42229ZM8.3335 6.62097C8.8535 6.62097 9.3415 6.82074 9.7095 7.18834C10.0775 7.55594 10.2775 8.0434 10.2775 8.56283C10.2695 9.63365 9.4055 10.5047 8.3335 10.5047C7.8135 10.5047 7.3255 10.3049 6.9575 9.93731C6.5895 9.56972 6.3895 9.08225 6.3895 8.56283V8.55484C6.3815 8.05139 6.5815 7.56393 6.9495 7.19633C7.3255 6.82074 7.8135 6.62097 8.3335 6.62097ZM12.8215 5.2305C12.4215 5.2305 12.1015 5.55814 12.1015 5.9577C12.1015 6.35726 12.4215 6.6769 12.8215 6.6769C13.2215 6.6769 13.5495 6.35726 13.5495 5.9577C13.5495 5.55814 13.2215 5.2305 12.8215 5.2305Z" fill="black"/>
</svg>
