<svg width="16" height="16" viewBox="0 0 16 16" fill="none" xmlns="http://www.w3.org/2000/svg">
<path d="M15.2405 1.0361L15.1123 0.887657C14.6425 0.41777 13.9072 0.375053 13.389 0.759506L13.2406 0.887657L7.99991 6.12771L2.75925 0.887657C2.24238 0.370781 1.40436 0.370781 0.88748 0.887657C0.370603 1.40453 0.370603 2.24256 0.88748 2.75943L6.12754 8.00009L0.88748 13.2407C0.417592 13.7106 0.374874 14.4459 0.759328 14.9641L0.88748 15.1125C1.35737 15.5824 2.09266 15.6251 2.61081 15.2407L2.75925 15.1125L7.99991 9.87246L13.2406 15.1125C13.7574 15.6294 14.5955 15.6294 15.1123 15.1125C15.6292 14.5956 15.6292 13.7576 15.1123 13.2407L9.87229 8.00009L15.1123 2.75943C15.5822 2.28955 15.6249 1.55425 15.2405 1.0361Z" fill="#212121" fill-opacity="0.5"/>
</svg>
