<svg width="21" height="22" viewBox="0 0 21 22" fill="none" xmlns="http://www.w3.org/2000/svg">
<path d="M19.8547 18.8806C20.4861 18.8806 20.9996 19.4009 20.9996 20.0405C20.9996 20.6813 20.4861 21.2003 19.8547 21.2003H13.3833C12.7519 21.2003 12.2383 20.6813 12.2383 20.0405C12.2383 19.4009 12.7519 18.8806 13.3833 18.8806H19.8547ZM15.3668 1.59257L17.0385 2.92052C17.724 3.45657 18.181 4.16318 18.3373 4.90635C18.5177 5.72383 18.3253 6.52669 17.7841 7.22112L7.82619 20.0986C7.36919 20.6834 6.69571 21.0123 5.97412 21.0245L2.00539 21.0732C1.78891 21.0732 1.60852 20.927 1.56041 20.7199L0.658428 16.8092C0.502084 16.0904 0.658428 15.3472 1.11543 14.7746L8.17496 5.63733C8.29523 5.49113 8.5117 5.46799 8.65602 5.57641L11.6266 7.93992C11.819 8.0983 12.0836 8.18358 12.3602 8.14703C12.9495 8.07394 13.3463 7.53788 13.2862 6.96528C13.2501 6.67289 13.1058 6.42923 12.9134 6.24648C12.8533 6.19775 10.027 3.93171 10.027 3.93171C9.84664 3.78551 9.81056 3.51748 9.95488 3.33596L11.0733 1.88496C12.1076 0.557008 13.9116 0.435178 15.3668 1.59257Z" fill="white"/>
</svg>
