<svg width="17" height="17" viewBox="0 0 17 17" fill="none" xmlns="http://www.w3.org/2000/svg">
<path d="M15.602 14.6807C16.0972 14.6807 16.5 15.0887 16.5 15.5903C16.5 16.0929 16.0972 16.5 15.602 16.5H10.5264C10.0312 16.5 9.62842 16.0929 9.62842 15.5903C9.62842 15.0887 10.0312 14.6807 10.5264 14.6807H15.602ZM12.0821 1.12139L13.3932 2.16292C13.9309 2.58335 14.2893 3.13756 14.4119 3.72044C14.5534 4.3616 14.4025 4.99129 13.978 5.53595L6.16791 15.6359C5.80947 16.0946 5.28125 16.3526 4.7153 16.3621L1.60257 16.4003C1.43279 16.4003 1.2913 16.2857 1.25357 16.1232L0.546132 13.056C0.423509 12.4922 0.546132 11.9093 0.904567 11.4602L6.44145 4.29375C6.53578 4.17909 6.70556 4.16094 6.81875 4.24598L9.14858 6.09971C9.2995 6.22393 9.50702 6.29082 9.72397 6.26215C10.1862 6.20482 10.4974 5.78438 10.4503 5.33528C10.422 5.10596 10.3088 4.91485 10.1579 4.77152C10.1107 4.7333 7.89406 2.95601 7.89406 2.95601C7.75257 2.84135 7.72427 2.63113 7.83746 2.48876L8.71469 1.35072C9.52588 0.309188 10.9408 0.213635 12.0821 1.12139Z" fill="black"/>
</svg>
