<svg width="18" height="18" viewBox="0 0 18 18" fill="none" xmlns="http://www.w3.org/2000/svg">
<path d="M16.5459 15.567C17.0721 15.567 17.5 16.0005 17.5 16.5335C17.5 17.0675 17.0721 17.5 16.5459 17.5H11.153C10.6269 17.5 10.1989 17.0675 10.1989 16.5335C10.1989 16.0005 10.6269 15.567 11.153 15.567H16.5459ZM12.806 1.16023L14.199 2.26685C14.7703 2.71356 15.1511 3.30241 15.2814 3.92171C15.4318 4.60295 15.2714 5.272 14.8204 5.85069L6.52215 16.5819C6.14132 17.0692 5.58008 17.3433 4.97876 17.3535L1.67148 17.3941C1.49109 17.3941 1.34076 17.2723 1.30067 17.0997L0.549015 13.8407C0.418729 13.2417 0.549015 12.6224 0.929853 12.1453L6.81279 4.53086C6.91301 4.40903 7.09341 4.38974 7.21367 4.4801L9.68912 6.44969C9.84947 6.58167 10.07 6.65274 10.3005 6.62228C10.7915 6.56137 11.1223 6.11466 11.0722 5.63749C11.0421 5.39383 10.9218 5.19078 10.7615 5.03849C10.7114 4.99788 8.35619 3.10951 8.35619 3.10951C8.20586 2.98768 8.17579 2.76433 8.29606 2.61305L9.22811 1.40389C10.09 0.297262 11.5933 0.195737 12.806 1.16023Z" fill="#4F4BEB"/>
</svg>
