<svg width="15" height="16" viewBox="0 0 15 16" fill="none" xmlns="http://www.w3.org/2000/svg">
<path d="M1.73085 1.52466H13.4245C13.8282 1.52466 14.1554 1.85182 14.1554 2.25541L14.1555 3.41441C14.1556 3.60829 14.0785 3.79422 13.9414 3.93131L9.2534 8.61909C9.11637 8.75612 9.03934 8.94205 9.03934 9.13587V13.7439C9.03934 14.2194 8.5925 14.5683 8.13126 14.4529L6.66956 14.0875C6.34418 14.0062 6.11595 13.7138 6.11595 13.3785V9.13587C6.11595 8.94205 6.03894 8.75612 5.90189 8.61909L1.21406 3.93127C1.077 3.79421 1 3.60831 1 3.41448V2.25551C1 1.85187 1.32721 1.52466 1.73085 1.52466Z" stroke="white" stroke-width="1.09627" stroke-linecap="round" stroke-linejoin="round"/>
</svg>
