<svg width="15" height="16" viewBox="0 0 15 16" fill="none" xmlns="http://www.w3.org/2000/svg">
<path d="M10.989 14.653H1.46201C1.20685 14.653 1 14.4461 1 14.191V6.64488C1 6.38972 1.20685 6.18288 1.46201 6.18288H3.59315C4.13411 6.18288 4.6354 5.89905 4.91372 5.43519L7.00079 1.95677C7.45118 1.20622 8.51188 1.13487 9.05868 1.81836C9.3164 2.14052 9.39949 2.56872 9.28091 2.9639L8.49363 5.58811C8.4047 5.88454 8.62669 6.18288 8.93617 6.18288H12.4591C13.4745 6.18288 14.2121 7.14847 13.9449 8.12807L12.4748 13.5181C12.2921 14.1882 11.6835 14.653 10.989 14.653Z" stroke="white" stroke-width="1.15502" stroke-linecap="round"/>
<path d="M3.69531 14.653V6.18286" stroke="white" stroke-width="1.15502" stroke-linecap="round" stroke-linejoin="round"/>
</svg>
