<svg width="12" height="15" viewBox="0 0 12 15" fill="none" xmlns="http://www.w3.org/2000/svg">
<mask id="path-1-inside-1_507_2045" fill="white">
<path fill-rule="evenodd" clip-rule="evenodd" d="M1.81868 1.71794C4.02677 -0.434105 7.42298 -0.582619 9.77678 1.37608C12.1922 3.38242 12.7863 6.92993 10.794 9.37341C9.81117 10.5759 8.62165 11.6074 7.39491 12.6712C6.83781 13.1543 6.27304 13.644 5.71647 14.1595C5.71645 14.1595 5.71643 14.1594 5.71641 14.1594C5.7164 14.1594 5.7164 14.1594 5.71639 14.1594V14.1594C5.29248 13.7278 4.84798 13.2925 4.39544 12.8494C3.36429 11.8397 2.29144 10.7892 1.32551 9.64802C-0.650007 7.31663 -0.361388 3.84197 1.81868 1.71794Z"/>
</mask>
<path d="M9.77678 1.37608L9.27361 1.98075L9.27415 1.9812L9.77678 1.37608ZM1.81868 1.71794L2.36763 2.28138L2.36773 2.28128L1.81868 1.71794ZM10.794 9.37341L11.403 9.87122L11.4036 9.87051L10.794 9.37341ZM7.39491 12.6712L7.91028 13.2655L7.39491 12.6712ZM5.71647 14.1595L5.14683 14.702L5.68182 15.2637L6.25097 14.7366L5.71647 14.1595ZM5.71641 14.1594L6.28605 13.6169L5.76595 13.0708L5.1984 13.5674L5.71641 14.1594ZM5.71639 14.1594H4.92975V15.893L6.23439 14.7514L5.71639 14.1594ZM5.71639 14.1594H6.50303V13.8377L6.2776 13.6082L5.71639 14.1594ZM4.39544 12.8494L4.9458 12.2874L4.39544 12.8494ZM1.32551 9.64802L1.92594 9.1398L1.92566 9.13947L1.32551 9.64802ZM10.2799 0.771414C7.61232 -1.44843 3.76221 -1.27471 1.26964 1.1546L2.36773 2.28128C4.29134 0.406495 7.23363 0.283197 9.27361 1.98075L10.2799 0.771414ZM11.4036 9.87051C13.707 7.04561 12.9784 3.01279 10.2794 0.770963L9.27415 1.9812C11.4061 3.75204 11.8656 6.81426 10.1843 8.8763L11.4036 9.87051ZM7.91028 13.2655C9.12742 12.21 10.3702 11.135 11.403 9.87122L10.1849 8.87559C9.25219 10.0168 8.11589 11.0048 6.87955 12.0769L7.91028 13.2655ZM6.25097 14.7366C6.79659 14.2313 7.3517 13.7499 7.91028 13.2655L6.87955 12.0769C6.32393 12.5587 5.74949 13.0567 5.18196 13.5823L6.25097 14.7366ZM5.14678 14.7019C5.15 14.7053 5.15264 14.708 5.15426 14.7097C5.15508 14.7105 5.15575 14.7112 5.15616 14.7116C5.15637 14.7118 5.15653 14.712 5.15664 14.7121C5.15669 14.7121 5.15673 14.7122 5.15676 14.7122C5.15677 14.7122 5.15678 14.7122 5.15679 14.7122C5.15679 14.7122 5.15679 14.7123 5.1568 14.7123C5.1568 14.7123 5.1568 14.7123 5.1568 14.7123C5.1568 14.7123 5.1568 14.7123 5.1568 14.7123C5.15701 14.7125 5.15575 14.7112 5.15429 14.7097C5.15268 14.7081 5.15004 14.7054 5.14683 14.702L6.2861 13.617C6.28288 13.6136 6.28024 13.6109 6.27862 13.6092C6.2778 13.6084 6.27713 13.6077 6.27672 13.6073C6.27651 13.6071 6.27634 13.6069 6.27624 13.6068C6.27619 13.6067 6.27615 13.6067 6.27612 13.6067C6.27611 13.6067 6.2761 13.6066 6.27609 13.6066C6.27609 13.6066 6.27608 13.6066 6.27608 13.6066C6.27608 13.6066 6.27608 13.6066 6.27608 13.6066C6.27608 13.6066 6.27608 13.6066 6.27608 13.6066C6.27587 13.6064 6.27713 13.6077 6.27859 13.6092C6.2802 13.6108 6.28283 13.6135 6.28605 13.6169L5.14678 14.7019ZM6.23439 14.7514C6.24419 14.7429 6.25187 14.7357 6.25638 14.7315C6.25871 14.7293 6.26057 14.7275 6.26169 14.7264C6.26227 14.7258 6.26273 14.7254 6.26301 14.7251C6.26315 14.725 6.26327 14.7249 6.26334 14.7248C6.26337 14.7248 6.2634 14.7247 6.26342 14.7247C6.26343 14.7247 6.26343 14.7247 6.26344 14.7247C6.26344 14.7247 6.26344 14.7247 6.26344 14.7247C6.26344 14.7247 6.26344 14.7247 6.26345 14.7247H6.26345C6.26359 14.7246 6.26272 14.7254 6.2617 14.7264C6.26058 14.7275 6.25872 14.7292 6.2564 14.7314C6.25188 14.7357 6.24421 14.7428 6.23442 14.7514L5.1984 13.5674C5.18861 13.576 5.18093 13.5831 5.17641 13.5874C5.17409 13.5896 5.17223 13.5914 5.17111 13.5924C5.17053 13.593 5.17007 13.5934 5.16979 13.5937C5.16965 13.5939 5.16953 13.594 5.16946 13.594C5.16943 13.5941 5.1694 13.5941 5.16938 13.5941C5.16937 13.5941 5.16936 13.5941 5.16936 13.5941C5.16936 13.5941 5.16936 13.5941 5.16936 13.5941C5.16935 13.5941 5.16935 13.5941 5.16935 13.5941C5.16935 13.5941 5.16935 13.5941 5.16935 13.5941C5.16921 13.5943 5.17008 13.5934 5.1711 13.5925C5.17222 13.5914 5.17408 13.5896 5.1764 13.5874C5.18091 13.5831 5.18859 13.576 5.19838 13.5674L6.23439 14.7514ZM4.92975 14.1594V14.1594H6.50303V14.1594H4.92975ZM3.84509 13.4115C4.29867 13.8556 4.73758 14.2854 5.15517 14.7106L6.2776 13.6082C5.84738 13.1701 5.39728 12.7295 4.9458 12.2874L3.84509 13.4115ZM0.725074 10.1562C1.71869 11.3301 2.81817 12.4059 3.84509 13.4115L4.9458 12.2874C3.91041 11.2735 2.86418 10.2483 1.92594 9.1398L0.725074 10.1562ZM1.26973 1.15451C-1.18483 3.54597 -1.53632 7.48746 0.725352 10.1566L1.92566 9.13947C0.23631 7.1458 0.462055 4.13797 2.36763 2.28138L1.26973 1.15451Z" fill="white" mask="url(#path-1-inside-1_507_2045)"/>
<path d="M8.39121 5.69625C8.39121 6.94922 7.37547 7.96496 6.12249 7.96496C4.86951 7.96496 3.85377 6.94922 3.85377 5.69625C3.85377 4.44327 4.86951 3.42753 6.12249 3.42753C7.37547 3.42753 8.39121 4.44327 8.39121 5.69625Z" stroke="white" stroke-width="0.78664"/>
</svg>
