<svg width="41" height="48" viewBox="0 0 41 48" fill="none" xmlns="http://www.w3.org/2000/svg">
<path fill-rule="evenodd" clip-rule="evenodd" d="M33.4237 4.66486C25.3768 -1.97505 13.7662 -1.4716 6.21749 5.82375C-1.23547 13.0241 -2.22217 24.8031 4.53148 32.7064C9.28298 38.2729 14.7913 43.2029 19.5428 48C25.6354 42.405 32.0155 37.7029 36.9011 31.7754C43.7122 23.4922 41.6813 11.4662 33.4237 4.66486Z" fill="white"/>
<path fill-rule="evenodd" clip-rule="evenodd" d="M33.4239 4.66484C29.3813 1.33063 24.4286 -0.198731 19.543 0.0292489V48C25.626 42.405 32.0157 37.7029 36.8821 31.7849C43.7124 23.5017 41.6815 11.4662 33.4239 4.66484Z" fill="white"/>
<path d="M19.8331 27.8487C24.8592 27.8487 28.9337 23.8084 28.9337 18.8245C28.9337 13.8406 24.8592 9.80029 19.8331 9.80029C14.8069 9.80029 10.7324 13.8406 10.7324 18.8245C10.7324 23.8084 14.8069 27.8487 19.8331 27.8487Z" fill="black"/>
</svg>
