<svg width="91" height="15" viewBox="0 0 91 15" fill="none" xmlns="http://www.w3.org/2000/svg">
<g clip-path="url(#clip0_374_523)">
<path d="M6.62419 14.9999C5.40224 14.9999 4.36974 14.8862 3.52669 14.6541C2.6789 14.422 1.99689 14.0337 1.48537 13.4842C0.969122 12.9348 0.594959 12.2007 0.358147 11.2771C0.121336 10.3583 0.00292969 9.20259 0.00292969 7.82432V7.17544C0.00292969 5.79243 0.121336 4.64149 0.358147 3.72264C0.594959 2.80379 0.969122 2.06492 1.48537 1.51551C2.00162 0.966092 2.67417 0.577712 3.50775 0.345631C4.34132 0.11355 5.35961 -0.00012207 6.56735 -0.00012207C7.77509 -0.00012207 8.81233 0.0898684 9.64591 0.265113C10.4795 0.440358 11.1473 0.719802 11.6493 1.09871C12.1514 1.47762 12.5113 1.98441 12.7387 2.61434C12.9613 3.24427 13.0749 4.02103 13.0749 4.93988L11.2468 4.98251C11.2325 4.34784 11.1568 3.82211 11.0242 3.40531C10.8868 2.99325 10.65 2.66644 10.3137 2.42962C9.97271 2.19281 9.50856 2.0223 8.92126 1.92283C8.33397 1.82337 7.57617 1.77127 6.65734 1.77127C5.73851 1.77127 4.97124 1.86126 4.36027 2.03651C3.74929 2.21175 3.27093 2.51014 2.91572 2.93167C2.5605 3.35321 2.31421 3.92631 2.16265 4.65097C2.01109 5.37563 1.94005 6.28501 1.94005 7.38384V7.62539C1.94005 8.75264 2.01583 9.67623 2.16265 10.4104C2.30948 11.1398 2.56523 11.7129 2.92519 12.1297C3.28514 12.5417 3.77297 12.8306 4.38869 12.9917C5.0044 13.1527 5.78114 13.238 6.71418 13.238C7.45777 13.238 8.09716 13.2048 8.62288 13.1385C9.15334 13.0722 9.58434 12.9538 9.92535 12.7833C10.2616 12.6128 10.5268 12.3712 10.7163 12.0539C10.9057 11.7365 11.0384 11.3292 11.1141 10.8366C11.1899 10.3441 11.2183 9.7378 11.2041 9.01788V8.71475L12.3835 9.10313H5.86166V7.39805H13.0986C13.0986 7.61592 13.0986 7.82432 13.0892 8.02798C13.0844 8.23164 13.0797 8.42583 13.0797 8.61529V9.18365C13.0797 10.1072 13.0134 10.8982 12.876 11.5613C12.7387 12.2244 12.5208 12.7785 12.2177 13.2285C11.9146 13.6737 11.512 14.0289 11.0194 14.2942C10.5268 14.5594 9.91587 14.7441 9.19123 14.8531C8.46659 14.962 7.61406 15.0141 6.64313 15.0141L6.62419 14.9999Z" fill="white"/>
<path d="M28.695 0.284058C28.6808 0.625074 28.6761 1.01345 28.6761 1.46341V5.4372C28.6761 5.75453 28.6761 6.09555 28.6855 6.46499C28.695 6.83442 28.695 7.2228 28.695 7.64434V8.98472C28.695 9.85147 28.624 10.6188 28.4819 11.2818C28.3398 11.9449 28.1172 12.5133 27.8093 12.9869C27.5062 13.4606 27.1036 13.8489 26.6111 14.1473C26.1185 14.4457 25.517 14.6636 24.8113 14.7962C24.1056 14.9336 23.2815 14.9999 22.3295 14.9999C21.1502 14.9999 20.1556 14.8909 19.341 14.6731C18.5263 14.4552 17.8727 14.1094 17.3801 13.6358C16.8876 13.1622 16.5276 12.5417 16.305 11.7744C16.0824 11.0071 15.9688 10.0788 15.9688 8.97998V7.6396C15.9688 7.21806 15.9688 6.82495 15.9782 6.46025C15.9877 6.09555 15.9877 5.75453 15.9877 5.43246V1.48235C15.9877 1.03714 15.983 0.634547 15.9688 0.284058H17.9011V8.86158C17.9011 9.71412 17.9674 10.4246 18.1048 10.9835C18.2421 11.5471 18.4742 11.9923 18.8058 12.3238C19.1373 12.6554 19.592 12.8922 20.1698 13.0248C20.7476 13.1622 21.4675 13.2285 22.3343 13.2285C23.201 13.2285 23.9209 13.1622 24.4987 13.0248C25.0718 12.8875 25.5265 12.6554 25.8627 12.3238C26.1943 11.9923 26.4264 11.5471 26.5637 10.9835C26.7011 10.4198 26.7674 9.71412 26.7674 8.86158V1.52498C26.7674 1.07976 26.7626 0.662965 26.7484 0.284058H28.6998H28.695Z" fill="white"/>
<path d="M32.5355 12.1154V1.51551C32.5355 1.08924 32.5308 0.677174 32.5166 0.284058H34.4679C34.4537 0.677174 34.449 1.08924 34.449 1.52498V13.0911C34.449 13.3895 34.449 13.669 34.4585 13.9342C34.4632 14.1994 34.4679 14.4599 34.4679 14.7157H32.5166C32.5308 14.4599 32.5355 14.1994 32.5355 13.9342V12.1154Z" fill="white"/>
<path d="M38.4691 12.0306V1.5064C38.4691 1.07066 38.4644 0.668068 38.4502 0.284424H44.3658C45.6114 0.284424 46.6676 0.398096 47.5248 0.630177C48.3868 0.862258 49.0783 1.24117 49.6088 1.77637C50.1392 2.31158 50.5181 3.03624 50.7549 3.95035C50.9918 4.86447 51.1102 6.00593 51.1102 7.37473V7.61628C51.1102 8.71512 51.0344 9.66238 50.8876 10.4628C50.736 11.2633 50.4992 11.9358 50.1771 12.4852C49.8503 13.0347 49.4241 13.4704 48.8983 13.7972C48.3679 14.124 47.7285 14.3561 46.9802 14.4982C46.2271 14.6403 45.3509 14.7113 44.3468 14.7113H38.4549C38.4691 14.3182 38.4739 13.9109 38.4739 13.4799V12.0258L38.4691 12.0306ZM40.3778 13.5936L39.8095 13.0015H44.3421C45.2893 13.0015 46.0755 12.921 46.7007 12.76C47.3259 12.5989 47.8185 12.3195 48.1832 11.9264C48.5479 11.5332 48.8083 10.9838 48.9552 10.2781C49.102 9.57239 49.1778 8.6867 49.1778 7.61628V7.37473C49.1778 6.29011 49.102 5.39968 48.9552 4.70343C48.8036 4.00719 48.5526 3.46251 48.1926 3.06939C47.8327 2.67628 47.3401 2.39683 46.7197 2.2358C46.0945 2.07476 45.3083 1.98951 44.361 1.98951H39.8095L40.3778 1.4022V13.5983V13.5936Z" fill="white"/>
<path d="M54.2229 12.1154V1.50603C54.2229 1.07029 54.2182 0.667701 54.204 0.284058L56.1363 0.672438V14.3321L54.204 14.7204C54.2182 14.4647 54.2229 14.2042 54.2229 13.9389V12.1202V12.1154ZM58.3482 1.99388H54.365L54.204 0.288794H64.5668V2.01756C64.2164 2.01756 63.7806 2.01756 63.2644 2.00809C62.7481 2.00335 62.1987 1.99861 61.6067 1.99861H58.3434L58.3482 1.99388ZM58.3482 13.0106H62.5539C63.0276 13.0106 63.4728 13.0106 63.8943 13.0011C64.3158 12.9964 64.6852 12.9917 65.012 12.9917V14.7204H54.1992L54.3413 13.0153H58.3434L58.3482 13.0106ZM54.9523 6.48867H63.7712V8.21743C63.5296 8.21743 63.2407 8.21743 62.9092 8.20796C62.5776 8.20322 62.2177 8.19849 61.834 8.19849H54.9523V6.4934V6.48867Z" fill="white"/>
<path d="M83.8908 9.9794H82.2236C81.7642 9.25 81.2669 8.46377 80.7317 7.63018C80.1965 6.79658 79.6518 5.94877 79.093 5.07729C78.5388 4.21054 77.9894 3.36747 77.4447 2.54808C76.9048 1.72869 76.4028 0.970876 75.9434 0.27937H78.2404L81.1485 4.91151C81.3379 5.22411 81.5274 5.53197 81.7168 5.8351C81.9063 6.13823 82.0957 6.44609 82.2852 6.75869C82.4746 7.07129 82.6593 7.37441 82.8346 7.6728C83.0098 7.97119 83.1851 8.26011 83.365 8.54429H82.8772C83.0382 8.26011 83.2087 7.97593 83.384 7.69175C83.5592 7.40757 83.7392 7.11391 83.9239 6.81552C84.1086 6.51713 84.2886 6.21874 84.4733 5.92036C84.658 5.62197 84.8427 5.32358 85.0322 5.02519L88.0397 0.269897H90.2136C89.7542 0.961404 89.2569 1.71448 88.7217 2.53861C88.1865 3.35799 87.6371 4.20106 87.0735 5.06781C86.5099 5.93456 85.9605 6.78711 85.4158 7.6207C84.8759 8.4543 84.3644 9.2358 83.8908 9.96993V9.9794ZM82.1005 11.8076V8.78111H84.0092V13.2948C84.0092 13.7685 84.0139 14.2421 84.0281 14.7157H82.0768C82.091 14.2563 82.0957 13.7827 82.0957 13.3043V11.8124L82.1005 11.8076Z" fill="white"/>
<path d="M68.9529 3.51424C69.8449 3.51424 70.568 2.79114 70.568 1.89915C70.568 1.00716 69.8449 0.284058 68.9529 0.284058C68.061 0.284058 67.3379 1.00716 67.3379 1.89915C67.3379 2.79114 68.061 3.51424 68.9529 3.51424Z" fill="white"/>
<path d="M68.9529 9.25472C69.8449 9.25472 70.568 8.53162 70.568 7.63963C70.568 6.74764 69.8449 6.02454 68.9529 6.02454C68.061 6.02454 67.3379 6.74764 67.3379 7.63963C67.3379 8.53162 68.061 9.25472 68.9529 9.25472Z" fill="white"/>
<path d="M68.9529 14.6637C69.8449 14.6637 70.568 13.9406 70.568 13.0486C70.568 12.1566 69.8449 11.4335 68.9529 11.4335C68.061 11.4335 67.3379 12.1566 67.3379 13.0486C67.3379 13.9406 68.061 14.6637 68.9529 14.6637Z" fill="white"/>
<path d="M75.2576 11.8361C75.8875 11.8361 76.3991 12.3476 76.3991 12.9775C76.3991 13.6075 75.8875 14.119 75.2576 14.119C74.6277 14.119 74.1162 13.6075 74.1162 12.9775C74.1162 12.3476 74.6277 11.8361 75.2576 11.8361ZM75.2576 11.3624C74.3672 11.3624 73.6426 12.0871 73.6426 12.9775C73.6426 13.868 74.3672 14.5926 75.2576 14.5926C76.148 14.5926 76.8727 13.868 76.8727 12.9775C76.8727 12.0871 76.148 11.3624 75.2576 11.3624Z" fill="white"/>
</g>
<defs>
<clipPath id="clip0_374_523">
<rect width="90.2159" height="15" fill="white"/>
</clipPath>
</defs>
</svg>
