<svg width="35" height="55" viewBox="0 0 35 55" fill="none" xmlns="http://www.w3.org/2000/svg">
<path d="M17 33.5V51" stroke="black" stroke-width="2" stroke-linecap="round" stroke-linejoin="round"/>
<circle cx="17" cy="52" r="3" fill="black"/>
<path d="M0 6.56663C0 2.93998 2.93998 0 6.56663 0H27.7134C31.34 0 34.28 2.93998 34.28 6.56663V27.7134C34.28 31.34 31.34 34.28 27.7134 34.28H6.56663C2.93998 34.28 0 31.34 0 27.7134V6.56663ZM26.5758 11.8843C27.0538 11.4062 27.0538 10.631 26.5758 10.1529C26.0976 9.67475 25.3224 9.67475 24.8442 10.1529L13.4671 21.53L9.43569 17.4985C8.95758 17.0205 8.18242 17.0205 7.70431 17.4985C7.22618 17.9767 7.22618 18.7519 7.70431 19.2301L12.6015 24.1272C13.0796 24.6052 13.8547 24.6052 14.3328 24.1272L26.5758 11.8843Z" fill="#212121"/>
</svg>
