<svg width="16" height="13" viewBox="0 0 16 13" fill="none" xmlns="http://www.w3.org/2000/svg">
<path d="M8.10932 8.86358C7.76271 8.86358 7.47388 9.14984 7.47388 9.49407C7.47388 9.83687 7.76271 10.1238 8.10932 10.1238C8.45592 10.1238 8.73754 9.83687 8.73754 9.4862C8.73754 9.1434 8.45592 8.86358 8.10932 8.86358ZM8.10932 4.39865C7.76271 4.39865 7.47388 4.67704 7.47388 5.02127V7.04584C7.47388 7.38935 7.76271 7.67632 8.10932 7.67632C8.45592 7.67632 8.73754 7.38935 8.73754 7.04584V5.02127C8.73754 4.67704 8.45592 4.39865 8.10932 4.39865Z" fill="black"/>
<path d="M9.30253 1.3785L9.3025 1.37851L9.30569 1.38405L14.5333 10.4568C14.6093 10.6437 14.6366 10.7797 14.6454 10.9152C14.6634 11.2645 14.5418 11.6049 14.2979 11.871C14.0537 12.1361 13.7295 12.2911 13.3752 12.3139H2.84662C2.70529 12.3034 2.55816 12.2703 2.41573 12.2175C1.73382 11.938 1.40956 11.1766 1.65935 10.5163L6.92043 1.37738L6.92048 1.3774L6.92462 1.36999C7.04401 1.15654 7.22429 0.975701 7.44007 0.861948L7.44651 0.858557L7.45287 0.855031C8.10384 0.494023 8.93816 0.732291 9.30253 1.3785Z" stroke="black" stroke-width="1.37222"/>
</svg>
