<svg width="32" height="30" viewBox="0 0 32 30" fill="none" xmlns="http://www.w3.org/2000/svg">
<g filter="url(#filter0_d_378_508)">
<mask id="path-1-inside-1_378_508" fill="white">
<path fill-rule="evenodd" clip-rule="evenodd" d="M28.7777 10.2152C28.8243 10.46 28.8637 10.7076 28.8958 10.9579C29.434 15.1413 27.8569 19.2192 24.8772 21.8515C23.1793 23.3528 21.0256 24.3865 18.547 24.7057C15.191 25.1362 11.7539 25.005 8.20981 24.8697C6.60307 24.8084 4.97432 24.7462 3.32116 24.7352L3.33262 24.7234C3.32892 24.7234 3.32521 24.7234 3.3215 24.7233C3.29181 23.458 3.23568 22.1573 3.17853 20.8329C3.04718 17.7893 2.91041 14.6202 3.07671 11.4655C3.41942 5.03732 9.07403 0.120244 15.72 0.00218662C21.8584 -0.105466 27.0758 3.77238 28.5696 9.30838C28.6499 9.60598 28.7195 9.90837 28.7777 10.2152Z"/>
</mask>
<path fill-rule="evenodd" clip-rule="evenodd" d="M28.7777 10.2152C28.8243 10.46 28.8637 10.7076 28.8958 10.9579C29.434 15.1413 27.8569 19.2192 24.8772 21.8515C23.1793 23.3528 21.0256 24.3865 18.547 24.7057C15.191 25.1362 11.7539 25.005 8.20981 24.8697C6.60307 24.8084 4.97432 24.7462 3.32116 24.7352L3.33262 24.7234C3.32892 24.7234 3.32521 24.7234 3.3215 24.7233C3.29181 23.458 3.23568 22.1573 3.17853 20.8329C3.04718 17.7893 2.91041 14.6202 3.07671 11.4655C3.41942 5.03732 9.07403 0.120244 15.72 0.00218662C21.8584 -0.105466 27.0758 3.77238 28.5696 9.30838C28.6499 9.60598 28.7195 9.90837 28.7777 10.2152Z" fill="#4F4BEB"/>
<path d="M28.8958 10.9579L27.9039 11.085L27.9039 11.0855L28.8958 10.9579ZM28.7777 10.2152L27.7953 10.4018L27.7953 10.402L28.7777 10.2152ZM24.8772 21.8515L24.2151 21.1021L24.2148 21.1024L24.8772 21.8515ZM18.547 24.7057L18.6742 25.6975L18.6747 25.6975L18.547 24.7057ZM8.20981 24.8697L8.24796 23.8705L8.20981 24.8697ZM3.32116 24.7352L2.60456 24.0377L0.967624 25.7195L3.31447 25.7352L3.32116 24.7352ZM3.33262 24.7234L4.04922 25.4209L5.68614 23.7391L3.33931 23.7234L3.33262 24.7234ZM3.3215 24.7233L2.32178 24.7468L2.34454 25.7168L3.31481 25.7233L3.3215 24.7233ZM3.17853 20.8329L4.1776 20.7898L3.17853 20.8329ZM3.07671 11.4655L2.07813 11.4123L2.0781 11.4129L3.07671 11.4655ZM15.72 0.00218662L15.7025 -0.99766L15.7023 -0.997656L15.72 0.00218662ZM28.5696 9.30838L27.6041 9.56889L27.6041 9.56911L28.5696 9.30838ZM29.8877 10.8308C29.853 10.5605 29.8104 10.293 29.7601 10.0284L27.7953 10.402C27.8381 10.627 27.8744 10.8547 27.9039 11.085L29.8877 10.8308ZM25.5393 22.601C28.7697 19.7472 30.4678 15.3397 29.8876 10.8303L27.9039 11.0855C28.4002 14.9429 26.944 18.6913 24.2151 21.1021L25.5393 22.601ZM18.6747 25.6975C21.3568 25.3521 23.6957 24.2311 25.5396 22.6007L24.2148 21.1024C22.663 22.4745 20.6943 23.4209 18.4193 23.7139L18.6747 25.6975ZM8.17167 25.869C11.7 26.0037 15.2216 26.1405 18.6742 25.6975L18.4197 23.7138C15.1605 24.1319 11.8078 24.0063 8.24796 23.8705L8.17167 25.869ZM3.31447 25.7352C4.94935 25.7461 6.56252 25.8076 8.17167 25.869L8.24796 23.8705C6.64361 23.8092 4.99928 23.7464 3.32784 23.7352L3.31447 25.7352ZM2.61603 24.0259L2.60456 24.0377L4.03775 25.4327L4.04922 25.4209L2.61603 24.0259ZM3.31481 25.7233C3.31852 25.7233 3.32223 25.7234 3.32594 25.7234L3.33931 23.7234C3.33561 23.7234 3.3319 23.7234 3.32819 23.7234L3.31481 25.7233ZM2.17946 20.876C2.23669 22.2023 2.29236 23.493 2.32178 24.7468L4.32123 24.6999C4.29127 23.4229 4.23467 22.1123 4.1776 20.7898L2.17946 20.876ZM2.0781 11.4129C1.90886 14.6233 2.04844 17.8401 2.17946 20.876L4.1776 20.7898C4.04591 17.7385 3.91196 14.6172 4.07533 11.5182L2.0781 11.4129ZM15.7023 -0.997656C8.60125 -0.871516 2.45233 4.39326 2.07813 11.4123L4.0753 11.5188C4.3865 5.68138 9.5468 1.112 15.7378 1.00203L15.7023 -0.997656ZM29.535 9.04788C27.9156 3.04585 22.2747 -1.11292 15.7025 -0.99766L15.7376 1.00203C21.4422 0.901987 26.2361 4.49892 27.6041 9.56889L29.535 9.04788ZM29.7602 10.0286C29.6972 9.69683 29.6219 9.3697 29.535 9.04765L27.6041 9.56911C27.6779 9.84226 27.7418 10.1199 27.7953 10.4018L29.7602 10.0286Z" fill="black" mask="url(#path-1-inside-1_378_508)"/>
</g>
<defs>
<filter id="filter0_d_378_508" x="0.78518" y="0" width="30.4296" height="29.4296" filterUnits="userSpaceOnUse" color-interpolation-filters="sRGB">
<feFlood flood-opacity="0" result="BackgroundImageFix"/>
<feColorMatrix in="SourceAlpha" type="matrix" values="0 0 0 0 0 0 0 0 0 0 0 0 0 0 0 0 0 0 127 0" result="hardAlpha"/>
<feOffset dy="2.21482"/>
<feGaussianBlur stdDeviation="1.10741"/>
<feComposite in2="hardAlpha" operator="out"/>
<feColorMatrix type="matrix" values="0 0 0 0 0 0 0 0 0 0 0 0 0 0 0 0 0 0 0.1 0"/>
<feBlend mode="normal" in2="BackgroundImageFix" result="effect1_dropShadow_378_508"/>
<feBlend mode="normal" in="SourceGraphic" in2="effect1_dropShadow_378_508" result="shape"/>
</filter>
</defs>
</svg>
