<svg width="30" height="28" viewBox="0 0 30 28" fill="none" xmlns="http://www.w3.org/2000/svg">
<g filter="url(#filter0_d_588_905)">
<mask id="path-1-inside-1_588_905" fill="white">
<path fill-rule="evenodd" clip-rule="evenodd" d="M27.7847 10.2522C27.8282 10.4849 27.8653 10.7202 27.8958 10.9579C28.4381 15.1734 26.8326 19.2817 23.8085 21.9118C22.1213 23.3804 19.9922 24.3907 17.547 24.7056C14.191 25.1361 10.754 25.005 7.20983 24.8697C5.60308 24.8084 3.97432 24.7462 2.32116 24.7351L2.33257 24.7234C2.32888 24.7234 2.32519 24.7234 2.3215 24.7233C2.29181 23.458 2.23568 22.1573 2.17853 20.8329C2.04718 17.7893 1.91041 14.6202 2.07671 11.4655C2.41942 5.03732 8.07403 0.120244 14.72 0.00218662C20.8387 -0.105119 26.0422 3.74743 27.555 9.2549C27.6448 9.58167 27.7216 9.91426 27.7847 10.2522Z"/>
</mask>
<path fill-rule="evenodd" clip-rule="evenodd" d="M27.7847 10.2522C27.8282 10.4849 27.8653 10.7202 27.8958 10.9579C28.4381 15.1734 26.8326 19.2817 23.8085 21.9118C22.1213 23.3804 19.9922 24.3907 17.547 24.7056C14.191 25.1361 10.754 25.005 7.20983 24.8697C5.60308 24.8084 3.97432 24.7462 2.32116 24.7351L2.33257 24.7234C2.32888 24.7234 2.32519 24.7234 2.3215 24.7233C2.29181 23.458 2.23568 22.1573 2.17853 20.8329C2.04718 17.7893 1.91041 14.6202 2.07671 11.4655C2.41942 5.03732 8.07403 0.120244 14.72 0.00218662C20.8387 -0.105119 26.0422 3.74743 27.555 9.2549C27.6448 9.58167 27.7216 9.91426 27.7847 10.2522Z" fill="#4F4BEB"/>
<path d="M27.8958 10.9579L26.9039 11.085L26.9039 11.0855L27.8958 10.9579ZM27.7847 10.2522L26.8017 10.4357L26.8017 10.436L27.7847 10.2522ZM23.8085 21.9118L23.1522 21.1572L23.1519 21.1575L23.8085 21.9118ZM17.547 24.7056L17.6742 25.6975L17.6747 25.6974L17.547 24.7056ZM7.20983 24.8697L7.24797 23.8704L7.24797 23.8704L7.20983 24.8697ZM2.32116 24.7351L1.60457 24.0376L-0.0324231 25.7194L2.31447 25.7351L2.32116 24.7351ZM2.33257 24.7234L3.04916 25.4209L4.68607 23.7392L2.33929 23.7234L2.33257 24.7234ZM2.3215 24.7233L1.32178 24.7468L1.34454 25.7168L2.31478 25.7233L2.3215 24.7233ZM2.17853 20.8329L3.1776 20.7898L2.17853 20.8329ZM2.07671 11.4655L1.07813 11.4123L1.0781 11.4129L2.07671 11.4655ZM14.72 0.00218662L14.7025 -0.99766L14.7023 -0.997656L14.72 0.00218662ZM27.555 9.2549L26.5907 9.51977L26.5908 9.52002L27.555 9.2549ZM28.8877 10.8308C28.8548 10.5741 28.8147 10.3199 28.7677 10.0684L26.8017 10.436C26.8418 10.65 26.8759 10.8663 26.9039 11.085L28.8877 10.8308ZM24.4647 22.6663C27.7436 19.8147 29.4722 15.3742 28.8876 10.8303L26.9039 11.0855C27.4041 14.9725 25.9215 18.7488 23.1522 21.1572L24.4647 22.6663ZM17.6747 25.6974C20.3206 25.3567 22.6327 24.2611 24.465 22.666L23.1519 21.1575C21.61 22.4997 19.6639 23.4248 17.4193 23.7138L17.6747 25.6974ZM7.17169 25.869C10.7 26.0036 14.2216 26.1404 17.6742 25.6975L17.4197 23.7138C14.1605 24.1319 10.8079 24.0063 7.24797 23.8704L7.17169 25.869ZM2.31447 25.7351C3.94936 25.746 5.56254 25.8075 7.17169 25.869L7.24797 23.8704C5.64362 23.8092 3.99929 23.7463 2.32784 23.7352L2.31447 25.7351ZM1.61599 24.0259L1.60457 24.0376L3.03774 25.4326L3.04916 25.4209L1.61599 24.0259ZM2.31478 25.7233C2.31847 25.7233 2.32216 25.7234 2.32585 25.7234L2.33929 23.7234C2.3356 23.7234 2.33191 23.7234 2.32822 23.7234L2.31478 25.7233ZM1.17946 20.876C1.23669 22.2023 1.29236 23.493 1.32178 24.7468L3.32123 24.6999C3.29127 23.4229 3.23467 22.1123 3.1776 20.7898L1.17946 20.876ZM1.0781 11.4129C0.908859 14.6233 1.04844 17.8401 1.17946 20.876L3.1776 20.7898C3.04591 17.7385 2.91196 14.6172 3.07533 11.5182L1.0781 11.4129ZM14.7023 -0.997656C7.60125 -0.871516 1.45233 4.39326 1.07813 11.4123L3.0753 11.5188C3.3865 5.68138 8.5468 1.112 14.7378 1.00203L14.7023 -0.997656ZM28.5193 8.99003C26.8791 3.01902 21.2535 -1.11255 14.7025 -0.99766L14.7376 1.00203C20.4238 0.90231 25.2052 4.47583 26.5907 9.51977L28.5193 8.99003ZM28.7677 10.0687C28.6995 9.70322 28.6164 9.34341 28.5192 8.98978L26.5908 9.52002C26.6732 9.81993 26.7437 10.1253 26.8017 10.4357L28.7677 10.0687Z" fill="black" mask="url(#path-1-inside-1_588_905)"/>
</g>
<defs>
<filter id="filter0_d_588_905" x="0.701654" y="0" width="28.5967" height="27.5967" filterUnits="userSpaceOnUse" color-interpolation-filters="sRGB">
<feFlood flood-opacity="0" result="BackgroundImageFix"/>
<feColorMatrix in="SourceAlpha" type="matrix" values="0 0 0 0 0 0 0 0 0 0 0 0 0 0 0 0 0 0 127 0" result="hardAlpha"/>
<feOffset dy="1.29835"/>
<feGaussianBlur stdDeviation="0.649173"/>
<feComposite in2="hardAlpha" operator="out"/>
<feColorMatrix type="matrix" values="0 0 0 0 0 0 0 0 0 0 0 0 0 0 0 0 0 0 0.1 0"/>
<feBlend mode="normal" in2="BackgroundImageFix" result="effect1_dropShadow_588_905"/>
<feBlend mode="normal" in="SourceGraphic" in2="effect1_dropShadow_588_905" result="shape"/>
</filter>
</defs>
</svg>
