<svg width="29" height="29" viewBox="0 0 29 29" fill="none" xmlns="http://www.w3.org/2000/svg">
<g id="Group 45">
<g id="Group">
<g id="Group_2">
<g id="Group_3">
<path id="Vector" fill-rule="evenodd" clip-rule="evenodd" d="M28.4473 12.9571C27.5465 5.64673 21.3683 0.30561 13.9733 0.440486C6.6725 0.575363 0.460743 6.19298 0.0842721 13.537C-0.177913 18.7096 0.245618 23.9158 0.353181 28.6837C6.18175 28.7242 11.728 29.3648 17.0927 28.65C24.5818 27.6586 29.375 20.4562 28.4473 12.9571Z" fill="black"/>
</g>
</g>
<path id="Vector_2" fill-rule="evenodd" clip-rule="evenodd" d="M28.4476 12.9569C27.9972 9.28152 26.2023 6.10517 23.5938 3.86621L0.353516 28.697C6.17536 28.7375 11.7216 29.3782 17.0796 28.6633C24.5821 27.6585 29.3754 20.4561 28.4476 12.9569Z" fill="black"/>
</g>
<path id="Vector_3" d="M7.63399 17.3471C8.74785 17.3471 9.6508 16.4413 9.6508 15.3239C9.6508 14.2066 8.74785 13.3008 7.63399 13.3008C6.52014 13.3008 5.61719 14.2066 5.61719 15.3239C5.61719 16.4413 6.52014 17.3471 7.63399 17.3471Z" fill="white"/>
<path id="Vector_4" d="M13.6848 17.3471C14.7986 17.3471 15.7016 16.4413 15.7016 15.3239C15.7016 14.2066 14.7986 13.3008 13.6848 13.3008C12.5709 13.3008 11.668 14.2066 11.668 15.3239C11.668 16.4413 12.5709 17.3471 13.6848 17.3471Z" fill="white"/>
<path id="Vector_5" d="M19.7346 17.3471C20.8484 17.3471 21.7514 16.4413 21.7514 15.3239C21.7514 14.2066 20.8484 13.3008 19.7346 13.3008C18.6207 13.3008 17.7178 14.2066 17.7178 15.3239C17.7178 16.4413 18.6207 17.3471 19.7346 17.3471Z" fill="white"/>
</g>
</svg>
