<svg width="41" height="42" viewBox="0 0 41 42" fill="none" xmlns="http://www.w3.org/2000/svg">
<path fill-rule="evenodd" clip-rule="evenodd" d="M40.8356 18.4709C39.5425 7.97707 30.6739 0.309973 20.0585 0.503586C9.57827 0.6972 0.661389 8.7612 0.120971 19.3035C-0.255391 26.7285 0.35258 34.202 0.506985 41.0463C8.87381 41.1043 16.8353 42.024 24.5363 40.9979C35.2867 39.5748 42.1674 29.2358 40.8356 18.4709Z" fill="white"/>
<path fill-rule="evenodd" clip-rule="evenodd" d="M40.8355 18.4707C40.1889 13.1947 37.6123 8.63513 33.868 5.42114L0.506836 41.0654C8.864 41.1235 16.8255 42.0431 24.5168 41.017C35.2866 39.5746 42.1672 29.2356 40.8355 18.4707Z" fill="white"/>
<path d="M10.9586 24.773C12.5575 24.773 13.8537 23.4727 13.8537 21.8688C13.8537 20.2649 12.5575 18.9646 10.9586 18.9646C9.35965 18.9646 8.06348 20.2649 8.06348 21.8688C8.06348 23.4727 9.35965 24.773 10.9586 24.773Z" fill="black"/>
<path d="M19.6441 24.773C21.243 24.773 22.5392 23.4727 22.5392 21.8688C22.5392 20.2649 21.243 18.9646 19.6441 18.9646C18.0452 18.9646 16.749 20.2649 16.749 21.8688C16.749 23.4727 18.0452 24.773 19.6441 24.773Z" fill="black"/>
<path d="M28.3287 24.773C29.9276 24.773 31.2238 23.4727 31.2238 21.8688C31.2238 20.2649 29.9276 18.9646 28.3287 18.9646C26.7298 18.9646 25.4336 20.2649 25.4336 21.8688C25.4336 23.4727 26.7298 24.773 28.3287 24.773Z" fill="black"/>
</svg>
