<svg width="16" height="14" viewBox="0 0 16 14" fill="none" xmlns="http://www.w3.org/2000/svg">
<path d="M0.453261 0.16256C0.497436 0.246352 0.59902 0.284179 0.688247 0.247178C0.784033 0.207458 0.889212 0.185442 1 0.185442H1.38888C1.4913 0.185442 1.57433 0.102417 1.57433 0H1.98121C1.98121 0.102417 2.06424 0.185442 2.16666 0.185442H2.94443C3.04685 0.185442 3.12987 0.102417 3.12987 0H3.53676C3.53676 0.102417 3.61978 0.185442 3.7222 0.185442H4.49997C4.60239 0.185442 4.68541 0.102417 4.68541 0H5.0923C5.0923 0.102417 5.17533 0.185442 5.27774 0.185442H6.05552C6.15793 0.185442 6.24096 0.102417 6.24096 0H6.64785C6.64785 0.102417 6.73087 0.185442 6.83329 0.185442H7.61106C7.71348 0.185442 7.7965 0.102417 7.7965 0H8.20339C8.20339 0.102417 8.28642 0.185442 8.38883 0.185442H9.1666C9.26902 0.185442 9.35205 0.102417 9.35205 0H9.75893C9.75893 0.102417 9.84196 0.185442 9.94437 0.185442H10.7221C10.8246 0.185442 10.9076 0.102417 10.9076 0H11.3145C11.3145 0.102417 11.3975 0.185442 11.4999 0.185442H12.2777C12.3801 0.185442 12.4631 0.102417 12.4631 0H12.87C12.87 0.102417 12.953 0.185442 13.0555 0.185442H13.8332C13.9356 0.185442 14.0187 0.102417 14.0187 0H14.4256C14.4256 0.102417 14.5086 0.185442 14.611 0.185442H14.9999C15.1107 0.185442 15.2159 0.207458 15.3116 0.247178C15.4009 0.284179 15.5025 0.246352 15.5466 0.16256C15.6624 0.238321 15.7616 0.337454 15.8373 0.453261C15.7535 0.497436 15.7157 0.599019 15.7527 0.688246C15.7924 0.784032 15.8144 0.889211 15.8144 1C15.8144 1.11079 15.7924 1.21597 15.7527 1.31175C15.7157 1.40098 15.7535 1.50256 15.8373 1.54674C15.7616 1.66255 15.6624 1.76168 15.5466 1.83744C15.5025 1.75365 15.4009 1.71582 15.3116 1.75282C15.2159 1.79254 15.1107 1.81456 14.9999 1.81456H14.611C14.5086 1.81456 14.4256 1.89758 14.4256 2H14.0187C14.0187 1.89758 13.9357 1.81456 13.8332 1.81456H13.0555C12.953 1.81456 12.87 1.89758 12.87 2H12.4631C12.4631 1.89758 12.3801 1.81456 12.2777 1.81456H11.4999C11.3975 1.81456 11.3145 1.89758 11.3145 2H10.9076C10.9076 1.89758 10.8246 1.81456 10.7221 1.81456H9.94437C9.84196 1.81456 9.75893 1.89758 9.75893 2H9.35204C9.35204 1.89758 9.26902 1.81456 9.1666 1.81456H8.38883C8.28641 1.81456 8.20339 1.89758 8.20339 2H7.7965C7.7965 1.89758 7.71348 1.81456 7.61106 1.81456H6.83329C6.73087 1.81456 6.64785 1.89758 6.64785 2H6.24096C6.24096 1.89758 6.15793 1.81456 6.05552 1.81456H5.27774C5.17533 1.81456 5.0923 1.89758 5.0923 2H4.68541C4.68541 1.89758 4.60239 1.81456 4.49997 1.81456H3.7222C3.61978 1.81456 3.53676 1.89758 3.53676 2H3.12987C3.12987 1.89758 3.04685 1.81456 2.94443 1.81456H2.16666C2.06424 1.81456 1.98122 1.89758 1.98122 2H1.57433C1.57433 1.89758 1.4913 1.81456 1.38889 1.81456H1C0.889211 1.81456 0.784032 1.79254 0.688247 1.75282C0.599019 1.71582 0.497436 1.75365 0.453261 1.83744C0.337454 1.76168 0.238321 1.66255 0.16256 1.54674C0.246352 1.50256 0.284179 1.40098 0.247178 1.31175C0.207458 1.21597 0.185442 1.11079 0.185442 1C0.185442 0.889211 0.207458 0.784032 0.247178 0.688246C0.28418 0.599019 0.246352 0.497436 0.16256 0.453261C0.238321 0.337454 0.337455 0.238321 0.453261 0.16256ZM0.453261 4.16256C0.497436 4.24635 0.59902 4.28418 0.688247 4.24718C0.784033 4.20746 0.889212 4.18544 1 4.18544H1.35714C1.45956 4.18544 1.54258 4.10242 1.54258 4H1.88598C1.88598 4.10242 1.969 4.18544 2.07142 4.18544H2.7857C2.88812 4.18544 2.97114 4.10242 2.97114 4H3.31454C3.31454 4.10242 3.39756 4.18544 3.49998 4.18544H4.21426C4.31668 4.18544 4.3997 4.10242 4.3997 4H4.7431C4.7431 4.10242 4.82612 4.18544 4.92854 4.18544H5.64282C5.74524 4.18544 5.82826 4.10242 5.82826 4H6.17166C6.17166 4.10242 6.25468 4.18544 6.3571 4.18544H7.07138C7.1738 4.18544 7.25682 4.10242 7.25682 4H7.60022C7.60022 4.10242 7.68324 4.18544 7.78566 4.18544H8.49994C8.60236 4.18544 8.68538 4.10242 8.68538 4H9.02878C9.02878 4.10242 9.1118 4.18544 9.21422 4.18544H9.9285C10.0309 4.18544 10.1139 4.10242 10.1139 4H10.4573C10.4573 4.10242 10.5404 4.18544 10.6428 4.18544H10.9999C11.1107 4.18544 11.2159 4.20746 11.3117 4.24718C11.4009 4.28418 11.5025 4.24635 11.5467 4.16256C11.6625 4.23832 11.7616 4.33745 11.8374 4.45326C11.7536 4.49744 11.7157 4.59902 11.7527 4.68825C11.7925 4.78403 11.8145 4.88921 11.8145 5C11.8145 5.11079 11.7925 5.21597 11.7527 5.31175C11.7157 5.40098 11.7536 5.50256 11.8374 5.54674C11.7616 5.66255 11.6625 5.76168 11.5467 5.83744C11.5025 5.75365 11.4009 5.71582 11.3117 5.75282C11.2159 5.79254 11.1107 5.81456 10.9999 5.81456H10.6428C10.5404 5.81456 10.4573 5.89758 10.4573 6H10.1139C10.1139 5.89758 10.0309 5.81456 9.9285 5.81456H9.21422C9.1118 5.81456 9.02878 5.89758 9.02878 6H8.68538C8.68538 5.89758 8.60235 5.81456 8.49994 5.81456H7.78566C7.68324 5.81456 7.60021 5.89758 7.60021 6H7.25682C7.25682 5.89758 7.17379 5.81456 7.07138 5.81456H6.3571C6.25468 5.81456 6.17166 5.89758 6.17166 6H5.82826C5.82826 5.89758 5.74524 5.81456 5.64282 5.81456H4.92854C4.82612 5.81456 4.7431 5.89758 4.7431 6H4.3997C4.3997 5.89758 4.31668 5.81456 4.21426 5.81456H3.49998C3.39756 5.81456 3.31454 5.89758 3.31454 6H2.97114C2.97114 5.89758 2.88812 5.81456 2.7857 5.81456H2.07142C1.969 5.81456 1.88598 5.89758 1.88598 6H1.54258C1.54258 5.89758 1.45956 5.81456 1.35714 5.81456H1C0.889211 5.81456 0.784032 5.79254 0.688247 5.75282C0.599019 5.71582 0.497436 5.75365 0.453261 5.83744C0.337454 5.76168 0.238321 5.66255 0.16256 5.54674C0.246352 5.50256 0.284179 5.40098 0.247178 5.31175C0.207458 5.21597 0.185442 5.11079 0.185442 5C0.185442 4.88921 0.207458 4.78403 0.247178 4.68825C0.28418 4.59902 0.246352 4.49744 0.16256 4.45326C0.238321 4.33745 0.337455 4.23832 0.453261 4.16256ZM0.453262 8.16256C0.497436 8.24635 0.59902 8.28418 0.688247 8.24718C0.784033 8.20746 0.889212 8.18544 1 8.18544H1.38888C1.4913 8.18544 1.57433 8.10242 1.57433 8H1.98121C1.98121 8.10242 2.06424 8.18544 2.16666 8.18544H2.94443C3.04685 8.18544 3.12987 8.10242 3.12987 8H3.53676C3.53676 8.10242 3.61978 8.18544 3.7222 8.18544H4.49997C4.60239 8.18544 4.68541 8.10242 4.68541 8H5.0923C5.0923 8.10242 5.17533 8.18544 5.27774 8.18544H6.05552C6.15793 8.18544 6.24096 8.10242 6.24096 8H6.64785C6.64785 8.10242 6.73087 8.18544 6.83329 8.18544H7.61106C7.71348 8.18544 7.7965 8.10242 7.7965 8H8.20339C8.20339 8.10242 8.28642 8.18544 8.38883 8.18544H9.1666C9.26902 8.18544 9.35205 8.10242 9.35205 8H9.75893C9.75893 8.10242 9.84196 8.18544 9.94437 8.18544H10.7221C10.8246 8.18544 10.9076 8.10242 10.9076 8H11.3145C11.3145 8.10242 11.3975 8.18544 11.4999 8.18544H12.2777C12.3801 8.18544 12.4631 8.10242 12.4631 8H12.87C12.87 8.10242 12.953 8.18544 13.0555 8.18544H13.8332C13.9356 8.18544 14.0187 8.10242 14.0187 8H14.4256C14.4256 8.10242 14.5086 8.18544 14.611 8.18544H14.9999C15.1107 8.18544 15.2159 8.20746 15.3116 8.24718C15.4009 8.28418 15.5025 8.24635 15.5466 8.16256C15.6624 8.23832 15.7616 8.33745 15.8373 8.45326C15.7535 8.49744 15.7157 8.59902 15.7527 8.68825C15.7924 8.78403 15.8144 8.88921 15.8144 9C15.8144 9.11079 15.7924 9.21597 15.7527 9.31175C15.7157 9.40098 15.7535 9.50256 15.8373 9.54674C15.7616 9.66255 15.6624 9.76168 15.5466 9.83744C15.5025 9.75365 15.4009 9.71582 15.3116 9.75282C15.2159 9.79254 15.1107 9.81456 14.9999 9.81456H14.611C14.5086 9.81456 14.4256 9.89758 14.4256 10H14.0187C14.0187 9.89758 13.9357 9.81456 13.8332 9.81456H13.0555C12.953 9.81456 12.87 9.89758 12.87 10H12.4631C12.4631 9.89758 12.3801 9.81456 12.2777 9.81456H11.4999C11.3975 9.81456 11.3145 9.89758 11.3145 10H10.9076C10.9076 9.89758 10.8246 9.81456 10.7221 9.81456H9.94437C9.84196 9.81456 9.75893 9.89758 9.75893 10H9.35204C9.35204 9.89758 9.26902 9.81456 9.1666 9.81456H8.38883C8.28641 9.81456 8.20339 9.89758 8.20339 10H7.7965C7.7965 9.89758 7.71348 9.81456 7.61106 9.81456H6.83329C6.73087 9.81456 6.64785 9.89758 6.64785 10H6.24096C6.24096 9.89758 6.15793 9.81456 6.05552 9.81456H5.27774C5.17533 9.81456 5.0923 9.89758 5.0923 10H4.68541C4.68541 9.89758 4.60239 9.81456 4.49997 9.81456H3.7222C3.61978 9.81456 3.53676 9.89758 3.53676 10H3.12987C3.12987 9.89758 3.04685 9.81456 2.94443 9.81456H2.16666C2.06424 9.81456 1.98122 9.89758 1.98122 10H1.57433C1.57433 9.89758 1.4913 9.81456 1.38889 9.81456H1C0.889211 9.81456 0.784032 9.79254 0.688247 9.75282C0.599019 9.71582 0.497436 9.75365 0.453261 9.83744C0.337455 9.76168 0.238321 9.66255 0.16256 9.54674C0.246352 9.50256 0.284179 9.40098 0.247178 9.31175C0.207458 9.21597 0.185442 9.11079 0.185442 9C0.185442 8.88921 0.207458 8.78403 0.247178 8.68825C0.28418 8.59902 0.246352 8.49744 0.16256 8.45326C0.238321 8.33745 0.337455 8.23832 0.453262 8.16256ZM0.453262 12.1626C0.497436 12.2464 0.59902 12.2842 0.688247 12.2472C0.784033 12.2075 0.889212 12.1854 1 12.1854H1.35714C1.45956 12.1854 1.54258 12.1024 1.54258 12H1.88598C1.88598 12.1024 1.969 12.1854 2.07142 12.1854H2.7857C2.88812 12.1854 2.97114 12.1024 2.97114 12H3.31454C3.31454 12.1024 3.39756 12.1854 3.49998 12.1854H4.21426C4.31668 12.1854 4.3997 12.1024 4.3997 12H4.7431C4.7431 12.1024 4.82612 12.1854 4.92854 12.1854H5.64282C5.74524 12.1854 5.82826 12.1024 5.82826 12H6.17166C6.17166 12.1024 6.25468 12.1854 6.3571 12.1854H7.07138C7.1738 12.1854 7.25682 12.1024 7.25682 12H7.60022C7.60022 12.1024 7.68324 12.1854 7.78566 12.1854H8.49994C8.60236 12.1854 8.68538 12.1024 8.68538 12H9.02878C9.02878 12.1024 9.1118 12.1854 9.21422 12.1854H9.9285C10.0309 12.1854 10.1139 12.1024 10.1139 12H10.4573C10.4573 12.1024 10.5404 12.1854 10.6428 12.1854H10.9999C11.1107 12.1854 11.2159 12.2075 11.3117 12.2472C11.4009 12.2842 11.5025 12.2464 11.5467 12.1626C11.6625 12.2383 11.7616 12.3375 11.8374 12.4533C11.7536 12.4974 11.7157 12.599 11.7527 12.6882C11.7925 12.784 11.8145 12.8892 11.8145 13C11.8145 13.1108 11.7925 13.216 11.7527 13.3118C11.7157 13.401 11.7536 13.5026 11.8374 13.5467C11.7616 13.6625 11.6625 13.7617 11.5467 13.8374C11.5025 13.7536 11.4009 13.7158 11.3117 13.7528C11.2159 13.7925 11.1107 13.8146 10.9999 13.8146H10.6428C10.5404 13.8146 10.4573 13.8976 10.4573 14H10.1139C10.1139 13.8976 10.0309 13.8146 9.9285 13.8146H9.21422C9.1118 13.8146 9.02878 13.8976 9.02878 14H8.68538C8.68538 13.8976 8.60235 13.8146 8.49994 13.8146H7.78566C7.68324 13.8146 7.60021 13.8976 7.60021 14H7.25682C7.25682 13.8976 7.17379 13.8146 7.07138 13.8146H6.3571C6.25468 13.8146 6.17166 13.8976 6.17166 14H5.82826C5.82826 13.8976 5.74524 13.8146 5.64282 13.8146H4.92854C4.82612 13.8146 4.7431 13.8976 4.7431 14H4.3997C4.3997 13.8976 4.31668 13.8146 4.21426 13.8146H3.49998C3.39756 13.8146 3.31454 13.8976 3.31454 14H2.97114C2.97114 13.8976 2.88812 13.8146 2.7857 13.8146H2.07142C1.969 13.8146 1.88598 13.8976 1.88598 14H1.54258C1.54258 13.8976 1.45956 13.8146 1.35714 13.8146H1C0.889211 13.8146 0.784032 13.7925 0.688246 13.7528C0.599019 13.7158 0.497436 13.7536 0.453261 13.8374C0.337455 13.7617 0.238321 13.6625 0.16256 13.5467C0.246352 13.5026 0.284179 13.401 0.247178 13.3118C0.207458 13.216 0.185442 13.1108 0.185442 13C0.185442 12.8892 0.207458 12.784 0.247178 12.6882C0.28418 12.599 0.246352 12.4974 0.16256 12.4533C0.238321 12.3375 0.337455 12.2383 0.453262 12.1626Z" fill="black" stroke="black" stroke-width="0.370884" stroke-linecap="round" stroke-dasharray="0.74 0.74"/>
</svg>
