<svg width="40" height="53" viewBox="0 0 40 53" fill="none" xmlns="http://www.w3.org/2000/svg">
<g id="&#240;&#159;&#166;&#134; icon &#34;microphone&#34;">
<path id="Vector" d="M19.1357 0.0271204C18.8457 0.0739248 18.5592 0.140041 18.2781 0.225027C16.7899 0.56016 15.4639 1.40065 14.5257 2.60343C13.5875 3.80621 13.0952 5.29695 13.1324 6.8219V20.0156C13.1324 21.7652 13.8275 23.4432 15.0646 24.6803C16.3018 25.9175 17.9798 26.6125 19.7294 26.6125C21.479 26.6125 23.157 25.9175 24.3942 24.6803C25.6313 23.4432 26.3264 21.7652 26.3264 20.0156V6.8219C26.3583 5.88679 26.1909 4.95559 25.8354 4.09012C25.4798 3.22464 24.9442 2.44471 24.2642 1.80208C23.5841 1.15945 22.7751 0.668845 21.8909 0.362822C21.0067 0.0568 20.0675 -0.057633 19.1357 0.0271204ZM2.24745 13.4188C1.56473 13.6483 0.975895 14.0949 0.570882 14.6905C0.165869 15.2861 -0.0330577 15.9979 0.0044858 16.7172V20.0156C0.0044858 29.779 7.19518 37.7612 16.4969 39.4104V46.4031H13.1984C9.57008 46.4031 6.60145 49.3717 6.60145 53H33.0553C33.0553 49.3717 30.0866 46.4031 26.4583 46.4031H23.1598V39.4104C32.4615 37.8272 39.6522 29.779 39.6522 20.0156V16.7172C39.6522 15.8424 39.3047 15.0034 38.6861 14.3849C38.0675 13.7663 37.2286 13.4188 36.3538 13.4188C35.4789 13.4188 34.64 13.7663 34.0214 14.3849C33.4028 15.0034 33.0553 15.8424 33.0553 16.7172V20.0156C33.0553 27.3382 27.184 33.2094 19.8613 33.2094C12.5387 33.2094 6.66742 27.3382 6.66742 20.0156V16.7172C6.6754 16.2292 6.575 15.7456 6.37346 15.3011C6.17191 14.8566 5.87424 14.4624 5.50192 14.1469C5.12959 13.8314 4.69189 13.6024 4.22037 13.4765C3.74885 13.3506 3.25527 13.3309 2.77521 13.4188C2.64339 13.4108 2.51121 13.4108 2.37939 13.4188H2.24745Z" fill="white"/>
</g>
</svg>
