<svg width="17" height="17" viewBox="0 0 17 17" fill="none" xmlns="http://www.w3.org/2000/svg">
<path fill-rule="evenodd" clip-rule="evenodd" d="M16.8232 7.38032C16.2905 3.07069 12.6368 -0.0780407 8.26357 0.00147273C3.94599 0.0809862 0.272475 3.39272 0.0498369 7.72223C-0.105214 10.7716 0.145254 13.8408 0.208864 16.6516C3.65577 16.6754 6.9357 17.0531 10.1083 16.6317C14.5372 16.0473 17.3718 11.8013 16.8232 7.38032Z" fill="#9F9FAC"/>
<path fill-rule="evenodd" clip-rule="evenodd" d="M16.8233 7.38026C16.5569 5.21352 15.4954 3.34098 13.9529 2.02106L0.208969 16.6595C3.6519 16.6833 6.93183 17.061 10.1004 16.6396C14.5373 16.0472 17.3719 11.8012 16.8233 7.38026Z" fill="#C9CCD4"/>
<path d="M4.51491 9.96847C5.17362 9.96847 5.70761 9.43448 5.70761 8.77577C5.70761 8.11706 5.17362 7.58307 4.51491 7.58307C3.8562 7.58307 3.3222 8.11706 3.3222 8.77577C3.3222 9.43448 3.8562 9.96847 4.51491 9.96847Z" fill="white"/>
<path d="M8.0927 9.96847C8.75141 9.96847 9.2854 9.43448 9.2854 8.77577C9.2854 8.11706 8.75141 7.58307 8.0927 7.58307C7.43398 7.58307 6.89999 8.11706 6.89999 8.77577C6.89999 9.43448 7.43398 9.96847 8.0927 9.96847Z" fill="white"/>
<path d="M11.6708 9.96847C12.3295 9.96847 12.8635 9.43448 12.8635 8.77577C12.8635 8.11706 12.3295 7.58307 11.6708 7.58307C11.0121 7.58307 10.4781 8.11706 10.4781 8.77577C10.4781 9.43448 11.0121 9.96847 11.6708 9.96847Z" fill="white"/>
</svg>
