<svg width="50" height="50" viewBox="0 0 50 50" fill="none" xmlns="http://www.w3.org/2000/svg">
<mask id="mask0_154_163" style="mask-type:alpha" maskUnits="userSpaceOnUse" x="0" y="0" width="50" height="50">
<circle cx="25" cy="25" r="25" fill="#181818"/>
</mask>
<g mask="url(#mask0_154_163)">
<ellipse cx="25" cy="24.5" rx="25.1462" ry="25" transform="rotate(-180 25 24.5)" fill="#181818"/>
</g>
<path d="M11.3139 31.4853L13.3201 28.906L16.3869 24.9577C16.6354 24.6408 16.4172 24.1655 16.0293 24.1655H12.4958C13.1807 17.8914 18.2779 13.0115 24.466 13.0115C30.5754 13.0115 35.3816 17.3147 36.1635 23.4811L36.1514 23.7663L39.4 19.5835C39.4303 19.5455 39.4727 19.5265 39.5091 19.4948L40 18.8737C37.6908 12.9355 32.2966 8.57529 25.9449 8.05562C15.7141 7.21273 7.24709 16.0662 8.05319 26.7639C8.22289 28.982 8.79867 31.0861 9.7078 33C9.94418 32.981 10.1684 32.8859 10.3503 32.7021L11.3139 31.4853Z" fill="url(#paint0_linear_154_163)"/>
<path d="M23.6733 41.9452C34.1156 42.7765 42.769 34.0378 41.9457 23.4925C41.8281 21.9986 41.5124 20.5546 41.0358 19.1919C40.8377 18.9606 40.5097 18.9419 40.2745 19.1169L36.8453 23.3237L33.6885 27.2493C33.4471 27.5494 33.6575 27.9932 34.0413 27.9932H35.8859C36.313 27.9932 36.6101 28.4245 36.4677 28.8308C34.7593 33.6127 30.2284 37.0382 24.9051 37.0382C18.4429 37.0382 15.2056 33.0376 13.3487 28.662L11.4917 30.9248L10.6004 32.0313C10.5695 32.0688 10.5323 32.0938 10.5014 32.1313L10 32.7376C12.6307 37.8383 17.7497 41.4701 23.6733 41.9452Z" fill="url(#paint1_linear_154_163)"/>
<defs>
<linearGradient id="paint0_linear_154_163" x1="39.5165" y1="14.9712" x2="15.2743" y2="36.0705" gradientUnits="userSpaceOnUse">
<stop stop-color="#FCFF59"/>
<stop offset="0.765625" stop-color="#9E9EA8"/>
<stop offset="1" stop-color="#4F4BEB"/>
</linearGradient>
<linearGradient id="paint1_linear_154_163" x1="17.218" y1="40.0977" x2="29.4831" y2="14.5011" gradientUnits="userSpaceOnUse">
<stop stop-color="#FCFF59"/>
<stop offset="0.765625" stop-color="#9E9EA8"/>
<stop offset="1" stop-color="#4F4BEB"/>
</linearGradient>
</defs>
</svg>
