<svg width="18" height="21" viewBox="0 0 18 21" fill="none" xmlns="http://www.w3.org/2000/svg">
<path fill-rule="evenodd" clip-rule="evenodd" d="M13.8712 1.95238C10.5317 -0.826617 5.71317 -0.615906 2.58034 2.43741C-0.512735 5.45097 -0.922227 10.3808 1.88062 13.6886C3.85255 16.0183 6.13856 18.0817 8.1105 20.0894C10.639 17.7477 13.2868 15.7798 15.3144 13.2989C18.1411 9.83216 17.2983 4.79896 13.8712 1.95238Z" fill="#9F9FAC"/>
<path fill-rule="evenodd" clip-rule="evenodd" d="M13.8712 1.95234C12.1935 0.556875 10.1381 -0.0832081 8.11047 0.012208V20.0893C10.635 17.7477 13.2868 15.7797 15.3064 13.3029C18.1411 9.83609 17.2982 4.79892 13.8712 1.95234Z" fill="#C9CCD4"/>
<path d="M8.23081 11.6555C10.3167 11.6555 12.0077 9.96455 12.0077 7.87863C12.0077 5.79272 10.3167 4.10175 8.23081 4.10175C6.14489 4.10175 4.45392 5.79272 4.45392 7.87863C4.45392 9.96455 6.14489 11.6555 8.23081 11.6555Z" fill="white"/>
</svg>
