<svg width="18" height="21" viewBox="0 0 18 21" fill="none" xmlns="http://www.w3.org/2000/svg">
<path fill-rule="evenodd" clip-rule="evenodd" d="M3.13975 18.137C6.47931 20.916 11.2978 20.7053 14.4307 17.652C17.5237 14.6384 17.9332 9.70859 15.1304 6.40083C13.1584 4.07109 10.8764 2.00374 8.90447 0C6.37594 2.34167 3.72815 4.30963 1.70453 6.79045C-1.12615 10.2572 -0.283305 15.2904 3.13975 18.137Z" fill="#9F9FAC"/>
<path fill-rule="evenodd" clip-rule="evenodd" d="M3.13975 18.137C4.81748 19.5325 6.8729 20.1726 8.9005 20.0771V0C6.37594 2.34167 3.72417 4.30963 1.70453 6.78647C-1.12615 10.2533 -0.283305 15.2904 3.13975 18.137Z" fill="#C9CCD4"/>
<path fill-rule="evenodd" clip-rule="evenodd" d="M8.56639 11.6448C5.97425 11.6448 3.67234 13.0283 2.19339 15.1712C2.63469 15.9465 3.22309 16.6581 3.94269 17.2584C6.82107 19.6518 10.9717 19.4729 13.6712 16.841C14.184 16.344 14.6054 15.7834 14.9434 15.1831C13.4684 13.0323 11.1585 11.6448 8.56639 11.6448Z" fill="white"/>
<path fill-rule="evenodd" clip-rule="evenodd" d="M11.1308 8.16209C11.1308 9.57742 9.98181 10.7264 8.56647 10.7264C7.15114 10.7264 6.00217 9.5814 6.00217 8.16209C6.00217 6.74675 7.15114 5.59778 8.56647 5.59778C9.98579 5.60175 11.1308 6.74675 11.1308 8.16209Z" fill="white"/>
</svg>
