<svg width="18" height="15" viewBox="0 0 18 15" fill="none" xmlns="http://www.w3.org/2000/svg">
<path d="M8.10542 0.0122494C10.133 -0.0831667 12.1845 0.556916 13.8662 1.95238C10.5266 -0.826617 5.70809 -0.615906 2.57526 2.43741C0.480082 4.4809 -0.378662 7.407 0.154078 10.1065H8.10542V0.0122494Z" fill="#9F9FAC"/>
<path d="M16.8282 10.1065C17.019 9.21196 17.0548 8.29756 16.9276 7.39508C17.0548 8.29756 17.019 9.21594 16.8282 10.1065Z" fill="#C9CCD4"/>
<path d="M13.8623 1.95227C12.1846 0.556814 10.1292 -0.0832692 8.10156 0.012147V10.1064H16.8242C17.015 9.21185 17.0508 8.29745 16.9236 7.39497V7.39099C16.8878 7.13655 16.8401 6.88211 16.7804 6.63164C16.367 4.86247 15.3611 3.19666 13.8623 1.95227Z" fill="#C9CCD4"/>
<path d="M17.2494 10.9016H0.154053V14.0821H17.2494V10.9016Z" fill="#9F9FAC"/>
</svg>
