<svg xmlns="http://www.w3.org/2000/svg" width="224" height="27" viewBox="0 0 224 27" fill="none">
  <path d="M188.669 27C175.608 27 169.088 20.7585 162.777 14.7266C156.741 8.9534 151.04 3.50168 139.541 3.50168C128.042 3.50168 122.341 8.9534 116.305 14.7266C110.002 20.7585 103.474 27 90.4202 27C77.3659 27 70.8388 20.7585 64.5349 14.7266C58.499 8.9534 52.8054 3.50168 41.2992 3.50168C29.793 3.50168 24.0995 8.9534 18.071 14.7266C11.7671 20.7585 5.24744 27 -7.81426 27C-20.876 27 -27.3956 20.7585 -33.6995 14.7266C-39.7354 8.94641 -45.4364 3.49469 -56.9352 3.49469V0C-43.8735 0 -37.3538 6.24152 -31.0499 12.2734C-25.014 18.0466 -19.3205 23.4983 -7.8217 23.4983C3.67706 23.4983 9.37806 18.0466 15.4065 12.2734C21.7178 6.24152 28.245 0 41.2992 0C54.3535 0 60.8806 6.24152 67.1845 12.2734C73.2204 18.0466 78.9139 23.4983 90.4127 23.4983C101.911 23.4983 107.612 18.0466 113.648 12.2734C119.952 6.24152 126.479 0 139.541 0C152.603 0 159.122 6.24152 165.434 12.2734C171.47 18.0466 177.171 23.4983 188.669 23.4983C200.168 23.4983 205.869 18.0466 211.905 12.2734C218.209 6.24152 224.736 0 237.798 0V3.49469C226.299 3.49469 220.598 8.94641 214.562 14.7196C208.258 20.7515 201.731 26.993 188.669 26.993V27Z" fill="url(#paint0_angular_27_145)"/>
  <defs>
    <radialGradient id="paint0_angular_27_145" cx="0" cy="0" r="1" gradientUnits="userSpaceOnUse" gradientTransform="translate(49.166) rotate(-3.05784) scale(140.597 40.9882)">
      <stop offset="0.619932" stop-color="#4F4BEB"/>
      <stop offset="0.920843" stop-color="#FCFF59"/>
    </radialGradient>
  </defs>
</svg>