<svg xmlns="http://www.w3.org/2000/svg" width="22" height="19" viewBox="0 0 22 19" fill="none">
  <g filter="url(#filter0_d_599_1040)">
    <mask id="path-1-inside-1_599_1040" fill="white">
      <path fill-rule="evenodd" clip-rule="evenodd" d="M17.7346 1.5699C19.8278 3.6631 19.8278 7.05686 17.7346 9.15006L10.7403 16.1443C9.92433 16.9603 8.6013 16.9603 7.78528 16.1443L4.83788 13.1969C4.8324 13.1915 4.82693 13.186 4.82147 13.1806L1.46765 9.82674C-0.489217 7.86987 -0.489217 4.69717 1.46765 2.7403C3.42452 0.78343 6.59723 0.783431 8.5541 2.7403L8.76907 2.95527L10.1544 1.5699C12.2476 -0.5233 15.6414 -0.523301 17.7346 1.5699Z"/>
    </mask>
    <path fill-rule="evenodd" clip-rule="evenodd" d="M17.7346 1.5699C19.8278 3.6631 19.8278 7.05686 17.7346 9.15006L10.7403 16.1443C9.92433 16.9603 8.6013 16.9603 7.78528 16.1443L4.83788 13.1969C4.8324 13.1915 4.82693 13.186 4.82147 13.1806L1.46765 9.82674C-0.489217 7.86987 -0.489217 4.69717 1.46765 2.7403C3.42452 0.78343 6.59723 0.783431 8.5541 2.7403L8.76907 2.95527L10.1544 1.5699C12.2476 -0.5233 15.6414 -0.523301 17.7346 1.5699Z" fill="white"/>
    <path d="M17.7346 9.15006L17.9467 9.36219L17.7346 9.15006ZM17.7346 1.5699L17.9467 1.35777L17.7346 1.5699ZM7.78528 16.1443L7.57315 16.3564H7.57315L7.78528 16.1443ZM4.83788 13.1969L5.05001 12.9848L5.04924 12.984L4.83788 13.1969ZM4.82147 13.1806L5.03361 12.9684L5.0336 12.9684L4.82147 13.1806ZM1.46765 9.82674L1.67978 9.61461H1.67978L1.46765 9.82674ZM1.46765 2.7403L1.25552 2.52817L1.46765 2.7403ZM8.5541 2.7403L8.34196 2.95243L8.5541 2.7403ZM8.76907 2.95527L8.55694 3.16741L8.76907 3.37954L8.9812 3.16741L8.76907 2.95527ZM10.1544 1.5699L9.94231 1.35777L10.1544 1.5699ZM17.9467 9.36219C20.1571 7.15183 20.1571 3.56813 17.9467 1.35777L17.5225 1.78203C19.4985 3.75808 19.4985 6.96188 17.5225 8.93793L17.9467 9.36219ZM10.9525 16.3564L17.9467 9.36219L17.5225 8.93793L10.5282 15.9322L10.9525 16.3564ZM7.57315 16.3564C8.50632 17.2896 10.0193 17.2896 10.9525 16.3564L10.5282 15.9322C9.82935 16.631 8.69627 16.631 7.99741 15.9322L7.57315 16.3564ZM4.62574 13.409L7.57315 16.3564L7.99741 15.9322L5.05001 12.9848L4.62574 13.409ZM5.04924 12.984C5.04402 12.9788 5.03881 12.9736 5.03361 12.9684L4.60933 13.3927C4.61505 13.3984 4.62078 13.4041 4.62651 13.4098L5.04924 12.984ZM5.0336 12.9684L1.67978 9.61461L1.25552 10.0389L4.60934 13.3927L5.0336 12.9684ZM1.67978 9.61461C-0.159928 7.7749 -0.159928 4.79214 1.67978 2.95243L1.25552 2.52817C-0.818506 4.60219 -0.818506 7.96485 1.25552 10.0389L1.67978 9.61461ZM1.67978 2.95243C3.51949 1.11272 6.50225 1.11272 8.34196 2.95243L8.76623 2.52817C6.6922 0.454142 3.32954 0.454141 1.25552 2.52817L1.67978 2.95243ZM8.34196 2.95243L8.55694 3.16741L8.9812 2.74314L8.76623 2.52817L8.34196 2.95243ZM9.94231 1.35777L8.55694 2.74314L8.9812 3.16741L10.3666 1.78203L9.94231 1.35777ZM17.9467 1.35777C15.7364 -0.852591 12.1527 -0.85259 9.94231 1.35777L10.3666 1.78203C12.3426 -0.194011 15.5464 -0.194012 17.5225 1.78203L17.9467 1.35777Z" fill="black" mask="url(#path-1-inside-1_599_1040)"/>
  </g>
  <defs>
    <filter id="filter0_d_599_1040" x="0" y="0" width="21.3047" height="18.7563" filterUnits="userSpaceOnUse" color-interpolation-filters="sRGB">
      <feFlood flood-opacity="0" result="BackgroundImageFix"/>
      <feColorMatrix in="SourceAlpha" type="matrix" values="0 0 0 0 0 0 0 0 0 0 0 0 0 0 0 0 0 0 127 0" result="hardAlpha"/>
      <feOffset dx="1" dy="1"/>
      <feGaussianBlur stdDeviation="0.5"/>
      <feComposite in2="hardAlpha" operator="out"/>
      <feColorMatrix type="matrix" values="0 0 0 0 0 0 0 0 0 0 0 0 0 0 0 0 0 0 0.1 0"/>
      <feBlend mode="normal" in2="BackgroundImageFix" result="effect1_dropShadow_599_1040"/>
      <feBlend mode="normal" in="SourceGraphic" in2="effect1_dropShadow_599_1040" result="shape"/>
    </filter>
  </defs>
</svg>